<?xml version="1.0" encoding="UTF-8"?>
<svg width="302pt" version="1.1" xmlns="http://www.w3.org/2000/svg" height="135pt" viewBox="0 0 302 135" xmlns:xlink="http://www.w3.org/1999/xlink">
 <defs>
  <clipPath id="Clip0">
   <path d="M0 0 L302 0 L302 135 L0 135 L0 0 Z" transform="translate(0, 0)"/>
  </clipPath>
  <clipPath id="Clip1">
   <path d="M4.75 0.1504 C7.5498 0 10.4502 9.0508 10.5996 11.8506 C10.7998 15.3008 10.1504 17.9004 5.6504 18.1006 C1.2002 18.3506 0.2998 15.8506 0.1504 12.4004 C0 9.5508 1.9502 0.25 4.75 0.1504 Z" transform="translate(27.25, 73.8496)"/>
  </clipPath>
  <clipPath id="Clip2">
   <path d="M5.25 0 C8.0498 0 10.5 9.1504 10.5 12 C10.5 15.4502 9.75 18 5.25 18 C0.75 18 0 15.4502 0 12 C0 9.1504 2.4502 0 5.25 0 Z" transform="translate(86.75, 74)"/>
  </clipPath>
  <clipPath id="Clip3">
   <path d="M4.6504 15.2002 C2.3008 15.25 0.1006 7.5498 0.0508 5.1504 C0 2.25 0.6006 0.1006 4.3506 0.0498 C8.1504 0 8.8008 2.1006 8.8506 5 C8.9004 7.4004 7 15.1504 4.6504 15.2002 Z" transform="translate(72.3496, 32.7998)"/>
  </clipPath>
  <clipPath id="Clip4">
   <path d="M4.3496 15 C2 15 0 7.3496 0 5 C0 2.0996 0.5996 0 4.3496 0 C8.0996 0 8.6992 2.0996 8.6992 5 C8.6992 7.3496 6.6992 15 4.3496 15 Z" transform="translate(42.6504, 33)"/>
  </clipPath>
  <clipPath id="Clip5">
   <path d="M0.15 6.0498 C0 3.2002 9.05 0.2998 11.9 0.2002 C15.35 0 17.9 0.5996 18.15 5.0996 C18.35 9.5996 15.9 10.4502 12.4 10.6494 C9.6 10.7998 0.3 8.8496 0.15 6.0498 Z" transform="translate(220.85, 69.9502)"/>
  </clipPath>
  <clipPath id="Clip6">
   <path d="M18.25 4.7002 C18.4 7.5 9.4 10.4502 6.55 10.6504 C3.1 10.8506 0.55 10.25 0.3 5.75 C0 1.25 2.5 0.3506 5.95 0.1504 C8.8 0 18.1 1.8506 18.25 4.7002 Z" transform="translate(262.75, 71.2998)"/>
  </clipPath>
 </defs>
 <g id="Background">
  <g id="Group1" clip-path="url(#Clip0)">
   <path style="fill:#000000; fill-rule:nonzero;stroke:none;" d="M2.7 0 L3.25 1 L0 1 L0 0 L2.7 0 Z" transform="translate(277.45, 75.5)"/>
   <path style="fill:#000000; fill-rule:nonzero;stroke:none;" d="M2.65 0 L2.65 1 L0 1 L0 0 L2.65 0 Z" transform="translate(271.9, 75.5)"/>
   <path style="fill:#000000; fill-rule:nonzero;stroke:none;" d="M2.65 0 L2.65 1 L0 1 L0 0 L2.65 0 Z" transform="translate(266.35, 75.5)"/>
   <path style="fill:#000000; fill-rule:nonzero;stroke:none;" d="M2.65 0 L2.65 1 L0 1 L0 0 L2.65 0 Z" transform="translate(260.8, 75.5)"/>
   <path style="fill:#000000; fill-rule:nonzero;stroke:none;" d="M2.7 0 L2.7 1 L0 1 L0 0 L2.7 0 Z" transform="translate(255.2, 75.5)"/>
   <path style="fill:#000000; fill-rule:nonzero;stroke:none;" d="M2.7 0 L2.7 1 L0 1 L0 0 L2.7 0 Z" transform="translate(249.65, 75.5)"/>
   <path style="fill:#000000; fill-rule:nonzero;stroke:none;" d="M2.7 0 L2.7 1 L0 1 L0 0 L2.7 0 Z" transform="translate(244.1, 75.5)"/>
   <path style="fill:#000000; fill-rule:nonzero;stroke:none;" d="M2.65 0 L2.65 1 L0 1 L0 0 L2.65 0 Z" transform="translate(238.55, 75.5)"/>
   <path style="fill:#000000; fill-rule:nonzero;stroke:none;" d="M2.65 0 L2.65 1 L0 1 L0 0 L2.65 0 Z" transform="translate(233, 75.5)"/>
   <path style="fill:#000000; fill-rule:nonzero;stroke:none;" d="M2.65 0 L2.65 1 L0 1 L0 0 L2.65 0 Z" transform="translate(227.45, 75.5)"/>
   <path style="fill:#000000; fill-rule:nonzero;stroke:none;" d="M3.25 0 L3.25 1 L0 1 L0.55 0 L3.25 0 Z" transform="translate(221.3, 75.5)"/>
   <path style="fill:#000000; fill-rule:nonzero;stroke:none;" d="M0.5996 1 L0 0 L30.5996 0 L30 1 L0.5996 1 Z" transform="translate(46.7002, 47.5)"/>
   <path style="fill:#000000; fill-rule:nonzero;stroke:none;" d="M0.9492 26.4004 L0.3496 26.5 L0 26.0996 L15.0498 0 L15.6494 1 L0.9492 26.4004 Z" transform="translate(31.6504, 47.5)"/>
   <path style="fill:#000000; fill-rule:nonzero;stroke:none;" d="M0.9004 22.3008 L0 21.8008 L12.6006 0 L13.4502 0.5 L0.9004 22.3008 Z" transform="translate(36.0498, 51.3496)"/>
   <path style="fill:#000000; fill-rule:nonzero;stroke:none;" d="M0 1 L0.5996 0 L15.6494 26.0996 L15.2998 26.5 L14.7002 26.4004 L0 1 Z" transform="translate(76.7002, 47.5)"/>
   <path style="fill:#000000; fill-rule:nonzero;stroke:none;" d="M0 0.5 L0.8496 0 L13.4502 21.8008 L12.5498 22.3008 L0 0.5 Z" transform="translate(74.5, 51.3496)"/>
   <path style="fill:#000000; fill-rule:evenodd;stroke:none;" d="M4.57031 5.0996 L5.32031 7.29 L6.36035 7.29 L3.79981 0 L2.59961 0 L0 7.29 L0.99024 7.29 L1.75977 5.0996 L4.57031 5.0996 Z M4.31055 4.3203 L1.99024 4.3203 L3.19043 1 L4.31055 4.3203 Z" transform="translate(2.91992, 85.21)"/>
   <path style="fill:#000000; fill-rule:nonzero;stroke:none;" d="M0.5 13.6504 L0 12.8008 L22.1006 0 L22.4502 0.4004 L22.3506 1 L0.5 13.6504 Z" transform="translate(9.5498, 73.5996)"/>
   <path style="fill:#000000; fill-rule:evenodd;stroke:none;" d="M0 7.29 L3.2901 7.29 C3.9795 7.29 4.4903 7.0996 4.8799 6.6796 C5.2403 6.2998 5.4405 5.7802 5.4405 5.2099 C5.4405 4.33 5.0401 3.7998 4.1104 3.4404 C4.7696 3.1298 5.1202 2.5898 5.1202 1.8496 C5.1202 1.3203 4.92 0.8496 4.5401 0.5097 C4.1602 0.1601 3.6602 0 2.96 0 L0 0 L0 7.29 Z M0.9297 3.1396 L0.9297 0.8203 L2.7295 0.8203 C3.25 0.8203 3.5401 0.8896 3.7901 1.08 C4.0498 1.2802 4.1905 1.58 4.1905 1.9804 C4.1905 2.3701 4.0498 2.6796 3.7901 2.8798 C3.5401 3.0703 3.25 3.1396 2.7295 3.1396 L0.9297 3.1396 Z M0.9297 6.4697 L0.9297 3.9599 L3.2002 3.9599 C3.6504 3.9599 3.9502 4.0703 4.17 4.3095 C4.3897 4.54 4.5098 4.8603 4.5098 5.2197 C4.5098 5.5703 4.3897 5.8896 4.17 6.1201 C3.9502 6.3603 3.6504 6.4697 3.2002 6.4697 L0.9297 6.4697 Z" transform="translate(51.29, 91.46)"/>
   <path style="fill:#000000; fill-rule:nonzero;stroke:none;" d="M17.5 16.75 L16.75 17.4492 L0 0.6992 L0.0996 0.0996 L0.6992 0 L17.5 16.75 Z" transform="translate(31.9004, 73.9004)"/>
   <path style="fill:#000000; fill-rule:evenodd;stroke:none;" d="M0 7.29 L3.2901 7.29 C3.9795 7.29 4.4903 7.0996 4.8799 6.6796 C5.2403 6.2998 5.4405 5.7802 5.4405 5.2099 C5.4405 4.33 5.0401 3.7998 4.1104 3.4404 C4.7696 3.1298 5.1202 2.5898 5.1202 1.8496 C5.1202 1.3203 4.92 0.8496 4.5401 0.5097 C4.1602 0.1601 3.6602 0 2.96 0 L0 0 L0 7.29 Z M0.9297 3.1396 L0.9297 0.8203 L2.7295 0.8203 C3.25 0.8203 3.5401 0.8896 3.7901 1.08 C4.0498 1.2802 4.1905 1.58 4.1905 1.9804 C4.1905 2.3701 4.0498 2.6796 3.7901 2.8798 C3.5401 3.0703 3.25 3.1396 2.7295 3.1396 L0.9297 3.1396 Z M0.9297 6.4697 L0.9297 3.9599 L3.2002 3.9599 C3.6504 3.9599 3.9502 4.0703 4.17 4.3095 C4.3897 4.54 4.5098 4.8603 4.5098 5.2197 C4.5098 5.5703 4.3897 5.8896 4.17 6.1201 C3.9502 6.3603 3.6504 6.4697 3.2002 6.4697 L0.9297 6.4697 Z" transform="translate(68.79, 91.46)"/>
   <path style="fill:#000000; fill-rule:nonzero;stroke:none;" d="M0.75 17.3994 L0 16.6992 L16.75 0 L17.3496 0.0996 L17.4492 0.6992 L0.75 17.3994 Z" transform="translate(74.6504, 73.9004)"/>
   <path style="fill:#000000; fill-rule:evenodd;stroke:none;" d="M4.57 5.0996 L5.32 7.29 L6.36 7.29 L3.8 0 L2.6 0 L0 7.29 L0.99 7.29 L1.76 5.0996 L4.57 5.0996 Z M4.31 4.3203 L1.99 4.3203 L3.19 1 L4.31 4.3203 Z" transform="translate(114.92, 85.21)"/>
   <path style="fill:#000000; fill-rule:nonzero;stroke:none;" d="M22.75 12.9502 L22.25 13.8008 L0.0996 1 L0 0.4004 L0.3496 0 L22.75 12.9502 Z" transform="translate(92, 73.5996)"/>
   <g id="Group2" clip-path="url(#Clip1)">
    <path style="fill:#000000; fill-rule:nonzero;stroke:none;" d="M0.1504 12.4004 C0.2998 15.8506 1.2002 18.3506 5.6504 18.1006 C10.1504 17.9004 10.7998 15.3008 10.5996 11.8506 C10.4502 9.0508 7.5498 0 4.75 0.1504 C1.9502 0.25 0 9.5508 0.1504 12.4004 " transform="translate(27.25, 73.8496)"/>
    <path style="fill:#101010; fill-rule:nonzero;stroke:none;" d="M0.1504 12.0996 C0.2998 15.4502 1.1504 17.8496 5.5498 17.6494 C9.9004 17.3994 10.5 14.9502 10.3506 11.5498 C10.2002 8.7998 7.4004 0 4.6504 0.1494 C1.9004 0.2998 0 9.3496 0.1504 12.0996 " transform="translate(27.2998, 73.9502)"/>
    <path style="fill:#1f1f1f; fill-rule:nonzero;stroke:none;" d="M0.1504 11.7002 C0.3008 15 1.1504 17.3506 5.4004 17.1006 C9.6504 16.9004 10.25 14.5 10.1006 11.2002 C9.9502 8.5508 7.2002 0 4.5508 0.1006 C1.8506 0.25 0 9.0508 0.1504 11.7002 " transform="translate(27.3496, 74.0996)"/>
    <path style="fill:#2e2e2e; fill-rule:nonzero;stroke:none;" d="M0.0996 11.3994 C0.2998 14.5996 1.0996 16.8496 5.25 16.6494 C9.3496 16.4502 9.9502 14.0996 9.7998 10.8994 C9.6494 8.2998 6.9502 0 4.3994 0.1494 C1.7998 0.25 0 8.7998 0.0996 11.3994 " transform="translate(27.4502, 74.2002)"/>
    <path style="fill:#3c3c3c; fill-rule:nonzero;stroke:none;" d="M0.1504 11.1006 C0.2998 14.2002 1.0498 16.4004 5.0996 16.2002 C9.1504 16 9.7002 13.7002 9.5 10.6006 C9.4004 8.1006 6.7998 0 4.25 0.1504 C1.75 0.2998 0 8.5498 0.1504 11.1006 " transform="translate(27.5, 74.2998)"/>
    <path style="fill:#494949; fill-rule:nonzero;stroke:none;" d="M0.1504 10.75 C0.2998 13.7002 1.0498 15.8496 4.9502 15.6494 C8.9004 15.4502 9.4004 13.25 9.25 10.25 C9.1504 7.7998 6.6006 0 4.1504 0.0996 C1.7002 0.25 0 8.2998 0.1504 10.75 " transform="translate(27.5498, 74.4502)"/>
    <path style="fill:#575757; fill-rule:nonzero;stroke:none;" d="M0.0996 10.4004 C0.25 13.2998 1 15.4004 4.7998 15.2002 C8.5996 15 9.0996 12.8506 8.9492 9.9502 C8.8496 7.6006 6.3994 0 4 0.1504 C1.6494 0.25 0 8.0498 0.0996 10.4004 " transform="translate(27.6504, 74.5498)"/>
    <path style="fill:#636363; fill-rule:nonzero;stroke:none;" d="M0.0996 10.0498 C0.25 12.8496 1 14.8496 4.6494 14.7002 C8.3496 14.5 8.8496 12.3994 8.7002 9.5996 C8.5498 7.2998 6.2002 0 3.8994 0.0996 C1.5996 0.2002 0 7.75 0.0996 10.0498 " transform="translate(27.7002, 74.7002)"/>
    <path style="fill:#707070; fill-rule:nonzero;stroke:none;" d="M0.1504 9.75 C0.2998 12.4502 0.9502 14.4004 4.5498 14.2002 C8.0996 14.0498 8.5498 12.0498 8.4502 9.2998 C8.2998 7.1006 6 0 3.7998 0.1006 C1.5498 0.25 0 7.5 0.1504 9.75 " transform="translate(27.75, 74.7998)"/>
    <path style="fill:#7b7b7b; fill-rule:nonzero;stroke:none;" d="M0.1006 9.3994 C0.25 12 0.9004 13.8496 4.3506 13.7002 C7.8008 13.5 8.25 11.5996 8.1006 8.9502 C8 6.8496 5.8008 0 3.6504 0.0996 C1.5 0.2002 0 7.25 0.1006 9.3994 " transform="translate(27.8496, 74.9502)"/>
    <path style="fill:#868686; fill-rule:nonzero;stroke:none;" d="M0.0996 9.0498 C0.25 11.6006 0.8994 13.4004 4.1992 13.25 C7.5498 13.0498 8 11.2002 7.8496 8.6504 C7.75 6.6006 5.5996 0 3.5498 0.1006 C1.4492 0.2002 0 7 0.0996 9.0498 " transform="translate(27.9004, 75.0498)"/>
    <path style="fill:#919191; fill-rule:nonzero;stroke:none;" d="M0.0996 8.75 C0.25 11.1992 0.8496 12.8994 4.0996 12.75 C7.2998 12.5996 7.75 10.7998 7.5996 8.3496 C7.5 6.3994 5.4502 0 3.4502 0.0996 C1.3994 0.1992 0 6.75 0.0996 8.75 " transform="translate(27.9502, 75.1504)"/>
    <path style="fill:#9b9b9b; fill-rule:nonzero;stroke:none;" d="M0.1006 8.4004 C0.2002 10.7002 0.7998 12.4004 3.9004 12.25 C7 12.1006 7.4004 10.3506 7.2998 8 C7.2002 6.1006 5.2002 0 3.25 0.1006 C1.3506 0.2002 0 6.4502 0.1006 8.4004 " transform="translate(28.0498, 75.2998)"/>
    <path style="fill:#a5a5a5; fill-rule:nonzero;stroke:none;" d="M0.1006 8.0498 C0.2002 10.2998 0.8008 11.9492 3.75 11.7998 C6.75 11.6494 7.1504 9.9492 7.0508 7.6992 C6.9502 5.8994 5 0 3.1504 0.0996 C1.3008 0.1992 0 6.25 0.1006 8.0498 " transform="translate(28.0996, 75.4004)"/>
    <path style="fill:#aeaeae; fill-rule:nonzero;stroke:none;" d="M0.0996 7.7002 C0.25 9.8506 0.7998 11.4004 3.6494 11.25 C6.5 11.1006 6.8994 9.5498 6.7998 7.3506 C6.6992 5.6006 4.8496 0 3.0498 0.1006 C1.25 0.1504 0 5.9502 0.0996 7.7002 " transform="translate(28.1504, 75.5498)"/>
    <path style="fill:#b7b7b7; fill-rule:nonzero;stroke:none;" d="M0.0996 7.3994 C0.2002 9.4492 0.7002 10.9492 3.4502 10.7998 C6.2002 10.6494 6.5996 9.1494 6.4502 7.0498 C6.4004 5.3994 4.5996 0 2.9004 0.0996 C1.2002 0.1992 0 5.6992 0.0996 7.3994 " transform="translate(28.25, 75.6504)"/>
    <path style="fill:#bfbfbf; fill-rule:nonzero;stroke:none;" d="M0.1006 7.0498 C0.2002 9 0.7002 10.4004 3.3506 10.25 C5.9502 10.1504 6.2998 8.7002 6.2002 6.75 C6.1504 5.1006 4.4502 0 2.7998 0.0498 C1.1504 0.1504 0 5.4004 0.1006 7.0498 " transform="translate(28.2998, 75.7998)"/>
    <path style="fill:#c7c7c7; fill-rule:nonzero;stroke:none;" d="M0.1006 6.6992 C0.2002 8.5996 0.7002 9.9492 3.2002 9.7998 C5.7002 9.6992 6.0508 8.2998 5.9502 6.4492 C5.9004 4.8994 4.25 0 2.7002 0.0996 C1.1006 0.1494 0 5.1992 0.1006 6.6992 " transform="translate(28.3496, 75.9004)"/>
    <path style="fill:#cecece; fill-rule:nonzero;stroke:none;" d="M0.0498 6.4004 C0.1494 8.2002 0.5996 9.4502 3 9.3496 C5.3994 9.2002 5.75 7.9004 5.6494 6.1504 C5.5498 4.6504 4.0498 0 2.5498 0.0996 C1.0498 0.1504 0 4.9502 0.0498 6.4004 " transform="translate(28.4502, 76)"/>
    <path style="fill:#d5d5d5; fill-rule:nonzero;stroke:none;" d="M0.0996 6.0498 C0.1504 7.75 0.5996 8.9492 2.9004 8.7998 C5.1504 8.6992 5.5 7.4492 5.4004 5.7998 C5.2998 4.3994 3.8496 0 2.4004 0.0498 C1 0.1494 0 4.6494 0.0996 6.0498 " transform="translate(28.5, 76.1504)"/>
    <path style="fill:#dbdbdb; fill-rule:nonzero;stroke:none;" d="M0.1006 5.75 C0.2002 7.2998 0.6006 8.4502 2.75 8.3496 C4.9004 8.25 5.2002 7.0498 5.1504 5.5 C5.0498 4.2002 3.6504 0 2.2998 0.0996 C0.9502 0.1504 0 4.4004 0.1006 5.75 " transform="translate(28.5498, 76.25)"/>
    <path style="fill:#e1e1e1; fill-rule:nonzero;stroke:none;" d="M0.0498 5.3496 C0.1494 6.8496 0.5498 7.9492 2.5996 7.8496 C4.5996 7.75 4.8994 6.6494 4.7998 5.1494 C4.75 3.8994 3.4492 0 2.1494 0.0498 C0.8994 0.0996 0 4.1494 0.0498 5.3496 " transform="translate(28.6504, 76.4004)"/>
    <path style="fill:#e6e6e6; fill-rule:nonzero;stroke:none;" d="M0.0498 5.0498 C0.1494 6.4502 0.5 7.4502 2.4502 7.3496 C4.3994 7.25 4.6494 6.25 4.5498 4.8496 C4.5 3.7002 3.25 0 2.0498 0.0498 C0.8496 0.0996 0 3.9004 0.0498 5.0498 " transform="translate(28.7002, 76.5)"/>
    <path style="fill:#ebebeb; fill-rule:nonzero;stroke:none;" d="M0.0996 4.6992 C0.1504 6 0.5 6.9492 2.2998 6.8496 C4.1504 6.75 4.4004 5.7998 4.2998 4.5 C4.25 3.3994 3.0996 0 1.9502 0.0498 C0.7998 0.0996 0 3.5996 0.0996 4.6992 " transform="translate(28.75, 76.6504)"/>
    <path style="fill:#efefef; fill-rule:nonzero;stroke:none;" d="M0.0508 4.3496 C0.1006 5.5996 0.4502 6.4502 2.1504 6.4004 C3.8506 6.2998 4.0508 5.4004 4 4.2002 C3.9502 3.2002 2.8506 0 1.8008 0.0498 C0.75 0.0996 0 3.3496 0.0508 4.3496 " transform="translate(28.8496, 76.75)"/>
    <path style="fill:#f3f3f3; fill-rule:nonzero;stroke:none;" d="M0.0498 4.0508 C0.0996 5.2002 0.3994 6 2 5.9004 C3.5996 5.8506 3.7998 5 3.75 3.9004 C3.6992 2.9502 2.6494 0 1.6992 0.0508 C0.6992 0.1006 0 3.1504 0.0498 4.0508 " transform="translate(28.9004, 76.8496)"/>
    <path style="fill:#f6f6f6; fill-rule:nonzero;stroke:none;" d="M0.0498 3.7002 C0.1494 4.75 0.3994 5.4502 1.8496 5.4004 C3.3496 5.3496 3.5498 4.5498 3.5 3.5498 C3.4502 2.7002 2.5 0 1.5498 0.0498 C0.6494 0.0996 0 2.8496 0.0498 3.7002 " transform="translate(28.9502, 77)"/>
    <path style="fill:#f9f9f9; fill-rule:nonzero;stroke:none;" d="M0.0498 3.4004 C0.1006 4.3008 0.3506 5 1.7002 4.9502 C3.0498 4.8506 3.25 4.1504 3.1504 3.25 C3.1504 2.4502 2.25 0 1.4004 0.0508 C0.5498 0.1006 0 2.6006 0.0498 3.4004 " transform="translate(29.0498, 77.0996)"/>
    <path style="fill:#fbfbfb; fill-rule:nonzero;stroke:none;" d="M0.0508 3 C0.1006 3.8496 0.3506 4.4502 1.5508 4.4004 C2.8008 4.3496 2.9502 3.75 2.9004 2.9004 C2.8506 2.2002 2.1006 0 1.3008 0 C0.5508 0.0498 0 2.3496 0.0508 3 " transform="translate(29.0996, 77.25)"/>
    <path style="fill:#fdfdfd; fill-rule:nonzero;stroke:none;" d="M0.0498 2.7002 C0.0996 3.4502 0.2998 4 1.4492 3.9502 C2.5498 3.9004 2.6992 3.3506 2.6494 2.6006 C2.5996 1.9502 1.8994 0 1.1992 0.0508 C0.5 0.0508 0 2.1006 0.0498 2.7002 " transform="translate(29.1504, 77.3496)"/>
    <path style="fill:#fefefe; fill-rule:nonzero;stroke:none;" d="M0 2.3496 C0.0498 3 0.25 3.4502 1.25 3.4502 C2.25 3.4004 2.4004 2.9004 2.3496 2.25 C2.2998 1.7002 1.6504 0 1.0498 0 C0.4004 0.0498 0 1.7998 0 2.3496 " transform="translate(29.25, 77.5)"/>
    <path style="fill:#ffffff; fill-rule:nonzero;stroke:none;" d="M0.0498 2.0508 C0.0498 2.6006 0.25 3 1.1006 2.9502 C2 2.9004 2.1006 2.5 2.1006 1.9502 C2.0498 1.5 1.5 0 0.9502 0 C0.4004 0.0508 0 1.5508 0.0498 2.0508 " transform="translate(29.2998, 77.5996)"/>
    <path style="fill:#ffffff; fill-rule:nonzero;stroke:none;" d="M0.0508 1.7002 C0.1006 2.2002 0.2002 2.5 1 2.5 C1.75 2.4502 1.8506 2.0996 1.8506 1.6494 C1.8008 1.25 1.3008 0 0.8506 0.0498 C0.3506 0.0498 0 1.3496 0.0508 1.7002 " transform="translate(29.3496, 77.7002)"/>
   </g>
   <path style="fill:none;stroke:#000000; stroke-width:1; stroke-linecap:butt; stroke-linejoin:miter; stroke-dasharray:none;" d="M0.1504 12.4004 C0.2998 15.8506 1.2002 18.3506 5.6504 18.1006 C10.1504 17.9004 10.7998 15.3008 10.5996 11.8506 C10.4502 9.0508 7.5498 0 4.75 0.1504 C1.9502 0.25 0 9.5508 0.1504 12.4004 " transform="translate(27.25, 73.8496)"/>
   <path style="fill:none;stroke:#000000; stroke-width:1; stroke-linecap:butt; stroke-linejoin:miter; stroke-dasharray:none;" d="M0.1504 12.4004 C0.2998 15.8506 1.2002 18.3506 5.6504 18.1006 C10.1504 17.9004 10.7998 15.3008 10.5996 11.8506 C10.4502 9.0508 7.5498 0 4.75 0.1504 C1.9502 0.25 0 9.5508 0.1504 12.4004 " transform="translate(27.25, 73.8496)"/>
   <path style="fill:#ffffff; fill-rule:nonzero;stroke:#000000; stroke-width:1; stroke-linecap:butt; stroke-linejoin:miter; stroke-dasharray:none;" d="M10.6494 5.9502 C10.5 2.5 9.5996 0 5.1494 0.25 C0.6494 0.5 0 3.0498 0.2002 6.5 C0.3496 9.3496 3.25 18.3496 6.0498 18.25 C8.8496 18.0996 10.7998 8.7998 10.6494 5.9502 " transform="translate(25.9502, 55.75)"/>
   <g id="Group3" clip-path="url(#Clip2)">
    <path style="fill:#000000; fill-rule:nonzero;stroke:none;" d="M0 12 C0 15.4502 0.75 18 5.25 18 C9.75 18 10.5 15.4502 10.5 12 C10.5 9.1504 8.0498 0 5.25 0 C2.4502 0 0 9.1504 0 12 " transform="translate(86.75, 74)"/>
    <path style="fill:#101010; fill-rule:nonzero;stroke:none;" d="M0 11.7002 C0 15.0508 0.75 17.5 5.1504 17.5 C9.5 17.5 10.25 15.0508 10.25 11.7002 C10.25 8.9502 7.8506 0 5.1504 0 C2.4004 0 0 8.9502 0 11.7002 " transform="translate(86.7998, 74.0996)"/>
    <path style="fill:#1f1f1f; fill-rule:nonzero;stroke:none;" d="M0 11.3994 C0 14.6494 0.6992 17.0498 4.9492 17.0498 C9.25 17.0498 9.9492 14.6494 9.9492 11.3994 C9.9492 8.7002 7.6494 0 4.9492 0 C2.2998 0 0 8.7002 0 11.3994 " transform="translate(86.9004, 74.2002)"/>
    <path style="fill:#2e2e2e; fill-rule:nonzero;stroke:none;" d="M0 11.0508 C0 14.2002 0.7002 16.5508 4.8496 16.5508 C9 16.5508 9.6494 14.2002 9.6494 11.0508 C9.6494 8.4502 7.4502 0 4.8496 0 C2.25 0 0 8.4502 0 11.0508 " transform="translate(86.9502, 74.3496)"/>
    <path style="fill:#3c3c3c; fill-rule:nonzero;stroke:none;" d="M0 10.75 C0 13.7998 0.7002 16.0498 4.7002 16.0498 C8.75 16.0498 9.4004 13.7998 9.4004 10.75 C9.4004 8.2002 7.25 0 4.7002 0 C2.2002 0 0 8.2002 0 10.75 " transform="translate(87, 74.4502)"/>
    <path style="fill:#494949; fill-rule:nonzero;stroke:none;" d="M0 10.4004 C0 13.4004 0.6504 15.5508 4.5508 15.5508 C8.4502 15.5508 9.1006 13.4004 9.1006 10.4004 C9.1006 7.9502 7 0 4.5508 0 C2.1006 0 0 7.9502 0 10.4004 " transform="translate(87.0996, 74.5996)"/>
    <path style="fill:#575757; fill-rule:nonzero;stroke:none;" d="M0 10.0996 C0 13 0.5996 15.0996 4.3994 15.0996 C8.25 15.0996 8.8496 13 8.8496 10.0996 C8.8496 7.7002 6.7998 0 4.3994 0 C2.0498 0 0 7.7002 0 10.0996 " transform="translate(87.1504, 74.7002)"/>
    <path style="fill:#636363; fill-rule:nonzero;stroke:none;" d="M0 9.7002 C0 12.5508 0.5996 14.6006 4.2998 14.6006 C8 14.6006 8.5996 12.5508 8.5996 9.7002 C8.5996 7.4502 6.5996 0 4.2998 0 C2 0 0 7.4502 0 9.7002 " transform="translate(87.2002, 74.8496)"/>
    <path style="fill:#707070; fill-rule:nonzero;stroke:none;" d="M0 9.3994 C0 12.1494 0.5498 14.0996 4.1504 14.0996 C7.7002 14.0996 8.2998 12.1494 8.2998 9.3994 C8.2998 7.2002 6.3506 0 4.1504 0 C1.9004 0 0 7.2002 0 9.3994 " transform="translate(87.2998, 74.9502)"/>
    <path style="fill:#7b7b7b; fill-rule:nonzero;stroke:none;" d="M0 9.1006 C0 11.75 0.5508 13.6504 4 13.6504 C7.4502 13.6504 8.0508 11.75 8.0508 9.1006 C8.0508 6.9502 6.1504 0 4 0 C1.8506 0 0 6.9502 0 9.1006 " transform="translate(87.3496, 75.0498)"/>
    <path style="fill:#868686; fill-rule:nonzero;stroke:none;" d="M0 8.75 C0 11.2998 0.5498 13.1494 3.8994 13.1494 C7.25 13.1494 7.7998 11.2998 7.7998 8.75 C7.7998 6.7002 6 0 3.8994 0 C1.7998 0 0 6.7002 0 8.75 " transform="translate(87.4004, 75.2002)"/>
    <path style="fill:#919191; fill-rule:nonzero;stroke:none;" d="M0 8.4502 C0 10.9004 0.5498 12.6504 3.75 12.6504 C7 12.6504 7.5 10.9004 7.5 8.4502 C7.5 6.4502 5.7998 0 3.75 0 C1.75 0 0 6.4502 0 8.4502 " transform="translate(87.4502, 75.2998)"/>
    <path style="fill:#9b9b9b; fill-rule:nonzero;stroke:none;" d="M0 8.0996 C0 10.4502 0.5 12.1494 3.6006 12.1494 C6.7002 12.1494 7.2002 10.4502 7.2002 8.0996 C7.2002 6.2002 5.5498 0 3.6006 0 C1.6504 0 0 6.2002 0 8.0996 " transform="translate(87.5498, 75.4502)"/>
    <path style="fill:#a5a5a5; fill-rule:nonzero;stroke:none;" d="M0 7.7998 C0 10.0498 0.5 11.7002 3.5 11.7002 C6.4502 11.7002 6.9502 10.0498 6.9502 7.7998 C6.9502 5.9502 5.3506 0 3.5 0 C1.6006 0 0 5.9502 0 7.7998 " transform="translate(87.5996, 75.5498)"/>
    <path style="fill:#aeaeae; fill-rule:nonzero;stroke:none;" d="M0 7.4502 C0 9.5996 0.5 11.2002 3.3496 11.2002 C6.25 11.2002 6.6992 9.5996 6.6992 7.4502 C6.6992 5.7002 5.1494 0 3.3496 0 C1.5498 0 0 5.7002 0 7.4502 " transform="translate(87.6504, 75.7002)"/>
    <path style="fill:#b7b7b7; fill-rule:nonzero;stroke:none;" d="M0 7.1504 C0 9.2002 0.4502 10.7002 3.2002 10.7002 C5.9502 10.7002 6.4004 9.2002 6.4004 7.1504 C6.4004 5.4502 4.9004 0 3.2002 0 C1.4502 0 0 5.4502 0 7.1504 " transform="translate(87.75, 75.7998)"/>
    <path style="fill:#bfbfbf; fill-rule:nonzero;stroke:none;" d="M0 6.8496 C0 8.7998 0.4502 10.25 3.0498 10.25 C5.7002 10.25 6.1504 8.7998 6.1504 6.8496 C6.1504 5.25 4.7002 0 3.0498 0 C1.4004 0 0 5.25 0 6.8496 " transform="translate(87.7998, 75.9004)"/>
    <path style="fill:#c7c7c7; fill-rule:nonzero;stroke:none;" d="M0 6.5 C0 8.3506 0.4502 9.75 2.9502 9.75 C5.4502 9.75 5.9004 8.3506 5.9004 6.5 C5.9004 4.9502 4.5 0 2.9502 0 C1.3506 0 0 4.9502 0 6.5 " transform="translate(87.8496, 76.0498)"/>
    <path style="fill:#cecece; fill-rule:nonzero;stroke:none;" d="M0 6.1992 C0 7.9492 0.3496 9.25 2.75 9.25 C5.2002 9.25 5.5498 7.9492 5.5498 6.1992 C5.5498 4.75 4.2998 0 2.75 0 C1.25 0 0 4.75 0 6.1992 " transform="translate(87.9502, 76.1504)"/>
    <path style="fill:#d5d5d5; fill-rule:nonzero;stroke:none;" d="M0 5.8506 C0 7.5498 0.3496 8.75 2.6504 8.75 C4.9502 8.75 5.2998 7.5498 5.2998 5.8506 C5.2998 4.4502 4.0996 0 2.6504 0 C1.25 0 0 4.4502 0 5.8506 " transform="translate(88, 76.2998)"/>
    <path style="fill:#dbdbdb; fill-rule:nonzero;stroke:none;" d="M0 5.5498 C0 7.1494 0.3506 8.2998 2.5498 8.2998 C4.7002 8.2998 5.0498 7.1494 5.0498 5.5498 C5.0498 4.25 3.9004 0 2.5498 0 C1.2002 0 0 4.25 0 5.5498 " transform="translate(88.0498, 76.4004)"/>
    <path style="fill:#e1e1e1; fill-rule:nonzero;stroke:none;" d="M0 5.2002 C0 6.7002 0.3506 7.75 2.4004 7.75 C4.4502 7.75 4.8008 6.7002 4.8008 5.2002 C4.8008 3.9502 3.7002 0 2.4004 0 C1.1504 0 0 3.9502 0 5.2002 " transform="translate(88.0996, 76.5498)"/>
    <path style="fill:#e6e6e6; fill-rule:nonzero;stroke:none;" d="M0 4.8994 C0 6.2998 0.2998 7.2998 2.25 7.2998 C4.2002 7.2998 4.5 6.2998 4.5 4.8994 C4.5 3.75 3.4502 0 2.25 0 C1.0498 0 0 3.75 0 4.8994 " transform="translate(88.2002, 76.6504)"/>
    <path style="fill:#ebebeb; fill-rule:nonzero;stroke:none;" d="M0 4.5996 C0 5.9004 0.2998 6.8496 2.0996 6.8496 C3.9502 6.8496 4.25 5.9004 4.25 4.5996 C4.25 3.5 3.25 0 2.0996 0 C1 0 0 3.5 0 4.5996 " transform="translate(88.25, 76.75)"/>
    <path style="fill:#efefef; fill-rule:nonzero;stroke:none;" d="M0 4.1992 C0 5.4492 0.2998 6.3496 2 6.3496 C3.7002 6.3496 4 5.4492 4 4.1992 C4 3.25 3.0498 0 2 0 C0.9502 0 0 3.25 0 4.1992 " transform="translate(88.2998, 76.9004)"/>
    <path style="fill:#f3f3f3; fill-rule:nonzero;stroke:none;" d="M0 3.9004 C0 5.0498 0.25 5.8496 1.8496 5.8496 C3.3994 5.8496 3.6494 5.0498 3.6494 3.9004 C3.6494 3 2.7998 0 1.8496 0 C0.8496 0 0 3 0 3.9004 " transform="translate(88.4004, 77)"/>
    <path style="fill:#f6f6f6; fill-rule:nonzero;stroke:none;" d="M0 3.5498 C0 4.5996 0.25 5.3496 1.7002 5.3496 C3.2002 5.3496 3.3994 4.5996 3.3994 3.5498 C3.3994 2.6992 2.6494 0 1.7002 0 C0.7998 0 0 2.6992 0 3.5498 " transform="translate(88.4502, 77.1504)"/>
    <path style="fill:#f9f9f9; fill-rule:nonzero;stroke:none;" d="M0 3.25 C0 4.2002 0.25 4.9004 1.5996 4.9004 C2.9502 4.9004 3.1504 4.2002 3.1504 3.25 C3.1504 2.5 2.4502 0 1.5996 0 C0.75 0 0 2.5 0 3.25 " transform="translate(88.5, 77.25)"/>
    <path style="fill:#fbfbfb; fill-rule:nonzero;stroke:none;" d="M0 2.8994 C0 3.75 0.2002 4.3496 1.4004 4.3496 C2.6504 4.3496 2.8506 3.75 2.8506 2.8994 C2.8506 2.1992 2.2002 0 1.4004 0 C0.6504 0 0 2.1992 0 2.8994 " transform="translate(88.5996, 77.4004)"/>
    <path style="fill:#fdfdfd; fill-rule:nonzero;stroke:none;" d="M0 2.5996 C0 3.3496 0.1992 3.9004 1.2998 3.9004 C2.3994 3.9004 2.5996 3.3496 2.5996 2.5996 C2.5996 2 2 0 1.2998 0 C0.5996 0 0 2 0 2.5996 " transform="translate(88.6504, 77.5)"/>
    <path style="fill:#fefefe; fill-rule:nonzero;stroke:none;" d="M0 2.3008 C0 2.9502 0.1494 3.4502 1.1494 3.4502 C2.2002 3.4502 2.3496 2.9502 2.3496 2.3008 C2.3496 1.75 1.7998 0 1.1494 0 C0.5498 0 0 1.75 0 2.3008 " transform="translate(88.7002, 77.5996)"/>
    <path style="fill:#ffffff; fill-rule:nonzero;stroke:none;" d="M0 1.9502 C0 2.5 0.1504 2.9502 1.0498 2.9502 C1.9502 2.9502 2.0996 2.5 2.0996 1.9502 C2.0996 1.5 1.5996 0 1.0498 0 C0.5 0 0 1.5 0 1.9502 " transform="translate(88.75, 77.75)"/>
    <path style="fill:#ffffff; fill-rule:nonzero;stroke:none;" d="M0 1.6504 C0 2.1006 0.1006 2.4502 0.9004 2.4502 C1.6504 2.4502 1.8008 2.1006 1.8008 1.6504 C1.8008 1.25 1.3506 0 0.9004 0 C0.4004 0 0 1.25 0 1.6504 " transform="translate(88.8496, 77.8496)"/>
   </g>
   <path style="fill:none;stroke:#000000; stroke-width:1; stroke-linecap:butt; stroke-linejoin:miter; stroke-dasharray:none;" d="M0 12 C0 15.4502 0.75 18 5.25 18 C9.75 18 10.5 15.4502 10.5 12 C10.5 9.1504 8.0498 0 5.25 0 C2.4502 0 0 9.1504 0 12 " transform="translate(86.75, 74)"/>
   <path style="fill:none;stroke:#000000; stroke-width:1; stroke-linecap:butt; stroke-linejoin:miter; stroke-dasharray:none;" d="M0 12 C0 15.4502 0.75 18 5.25 18 C9.75 18 10.5 15.4502 10.5 12 C10.5 9.1504 8.0498 0 5.25 0 C2.4502 0 0 9.1504 0 12 " transform="translate(86.75, 74)"/>
   <path style="fill:#ffffff; fill-rule:nonzero;stroke:#000000; stroke-width:1; stroke-linecap:butt; stroke-linejoin:miter; stroke-dasharray:none;" d="M10.5 5.9502 C10.5 2.5 9.75 0 5.25 0 C0.75 0 0 2.5 0 5.9502 C0 8.7998 2.4502 18 5.25 18 C8.0498 18 10.5 8.7998 10.5 5.9502 " transform="translate(86.75, 56)"/>
   <g id="Group4" clip-path="url(#Clip3)">
    <path style="fill:#000000; fill-rule:nonzero;stroke:none;" d="M8.8506 5 C8.8008 2.1006 8.1504 0 4.3506 0.0498 C0.6006 0.1006 0 2.25 0.0508 5.1504 C0.1006 7.5498 2.3008 15.25 4.6504 15.2002 C7 15.1504 8.9004 7.4004 8.8506 5 " transform="translate(72.3496, 32.7998)"/>
    <path style="fill:#101010; fill-rule:nonzero;stroke:none;" d="M8.6494 4.9004 C8.5996 2.0508 7.9492 0 4.25 0.0508 C0.5498 0.1504 0 2.2002 0.0498 5.0508 C0.0996 7.4004 2.1992 14.8506 4.5 14.8008 C6.8496 14.75 8.6992 7.2002 8.6494 4.9004 " transform="translate(72.4004, 32.8496)"/>
    <path style="fill:#1f1f1f; fill-rule:nonzero;stroke:none;" d="M8.4492 4.7998 C8.3994 2 7.75 0 4.1494 0.0996 C0.5498 0.1494 0 2.1992 0.0498 4.9492 C0.0996 7.1992 2.1992 14.5 4.4492 14.4492 C6.6992 14.3994 8.5 7.0498 8.4492 4.7998 " transform="translate(72.4004, 32.9004)"/>
    <path style="fill:#2e2e2e; fill-rule:nonzero;stroke:none;" d="M8.2002 4.5996 C8.1494 1.9502 7.5498 0 4.0498 0.0498 C0.5498 0.1504 0 2.0996 0.0498 4.7998 C0.0996 6.9502 2.0996 14.0498 4.2998 14 C6.5 13.9502 8.25 6.7998 8.2002 4.5996 " transform="translate(72.4502, 33)"/>
    <path style="fill:#3c3c3c; fill-rule:nonzero;stroke:none;" d="M7.9502 4.5 C7.9004 1.9004 7.2998 0 3.9004 0.1006 C0.5 0.1504 0 2.0498 0.0498 4.6504 C0.0996 6.7998 2.0498 13.6504 4.2002 13.6006 C6.2998 13.6006 8 6.6504 7.9502 4.5 " transform="translate(72.5, 33.0498)"/>
    <path style="fill:#494949; fill-rule:nonzero;stroke:none;" d="M7.75 4.3496 C7.7002 1.8496 7.1006 0 3.7998 0.0498 C0.5 0.0996 0 1.9492 0.0498 4.5 C0.0498 6.5498 2 13.25 4.0498 13.1992 C6.1006 13.1494 7.75 6.3994 7.75 4.3496 " transform="translate(72.5498, 33.1504)"/>
    <path style="fill:#575757; fill-rule:nonzero;stroke:none;" d="M7.5498 4.25 C7.5 1.7998 6.9502 0 3.75 0.0996 C0.5 0.1494 0 1.9502 0.0498 4.3994 C0.1006 6.3994 1.9502 12.8496 3.9502 12.7998 C5.9502 12.75 7.6006 6.25 7.5498 4.25 " transform="translate(72.5498, 33.2002)"/>
    <path style="fill:#636363; fill-rule:nonzero;stroke:none;" d="M7.3008 4.1006 C7.25 1.7002 6.7002 0 3.6006 0.0498 C0.5 0.1006 0 1.8506 0.0508 4.2002 C0.1006 6.1504 1.9004 12.4004 3.8506 12.4004 C5.8008 12.3506 7.3506 6 7.3008 4.1006 " transform="translate(72.5996, 33.2998)"/>
    <path style="fill:#707070; fill-rule:nonzero;stroke:none;" d="M7.0498 3.9502 C7.0498 1.7002 6.5 0 3.5 0.1006 C0.4492 0.1504 0 1.8008 0.0498 4.1006 C0.0996 6 1.7998 12.0508 3.6992 12 C5.5996 11.9502 7.0996 5.8506 7.0498 3.9502 " transform="translate(72.6504, 33.3496)"/>
    <path style="fill:#7b7b7b; fill-rule:nonzero;stroke:none;" d="M6.8496 3.7998 C6.7998 1.5996 6.2998 0 3.3496 0.0498 C0.4502 0.0996 0 1.7002 0.0498 3.9502 C0.0498 5.75 1.75 11.5996 3.5996 11.5498 C5.3994 11.5498 6.8496 5.6494 6.8496 3.7998 " transform="translate(72.7002, 33.4502)"/>
    <path style="fill:#868686; fill-rule:nonzero;stroke:none;" d="M6.6494 3.7002 C6.5996 1.5498 6.0996 0 3.2998 0.0498 C0.4502 0.0996 0 1.7002 0.0498 3.8496 C0.0996 5.5996 1.75 11.2002 3.5 11.2002 C5.25 11.1504 6.7002 5.4502 6.6494 3.7002 " transform="translate(72.7002, 33.5)"/>
    <path style="fill:#919191; fill-rule:nonzero;stroke:none;" d="M6.4004 3.5508 C6.3496 1.5 5.9004 0 3.1504 0.0508 C0.4502 0.1006 0 1.6006 0.0498 3.6504 C0.0996 5.3506 1.6504 10.8008 3.3496 10.75 C5.0498 10.7002 6.4502 5.25 6.4004 3.5508 " transform="translate(72.75, 33.5996)"/>
    <path style="fill:#9b9b9b; fill-rule:nonzero;stroke:none;" d="M6.1504 3.4492 C6.1504 1.4492 5.6504 0 3.0498 0.0498 C0.4004 0.0996 0 1.5498 0.0498 3.5498 C0.0498 5.1494 1.6006 10.3994 3.25 10.3496 C4.9004 10.3496 6.2002 5.0498 6.1504 3.4492 " transform="translate(72.7998, 33.6504)"/>
    <path style="fill:#a5a5a5; fill-rule:nonzero;stroke:none;" d="M5.9502 3.2998 C5.9004 1.3496 5.4502 0 2.9004 0.0498 C0.4004 0.0996 0 1.5 0 3.4004 C0.0508 4.9502 1.5 9.9502 3.1006 9.9502 C4.7002 9.9004 5.9502 4.8496 5.9502 3.2998 " transform="translate(72.8496, 33.75)"/>
    <path style="fill:#aeaeae; fill-rule:nonzero;stroke:none;" d="M5.6992 3.1504 C5.6494 1.3506 5.25 0 2.7998 0.0498 C0.3496 0.1006 0 1.4502 0 3.25 C0.0498 4.75 1.4492 9.6006 2.9492 9.5498 C4.5 9.5 5.6992 4.6504 5.6992 3.1504 " transform="translate(72.9004, 33.7998)"/>
    <path style="fill:#b7b7b7; fill-rule:nonzero;stroke:none;" d="M5.5 3 C5.4492 1.25 5.0498 0 2.6992 0.0498 C0.3994 0.0996 0 1.3496 0.0498 3.0996 C0.0996 4.5498 1.4492 9.1494 2.8994 9.0996 C4.3496 9.0996 5.5498 4.4492 5.5 3 " transform="translate(72.9004, 33.9004)"/>
    <path style="fill:#bfbfbf; fill-rule:nonzero;stroke:none;" d="M5.25 2.8994 C5.25 1.25 4.8496 0 2.5996 0.0498 C0.3496 0.0996 0 1.2998 0.0498 3 C0.0498 4.3496 1.3496 8.75 2.75 8.75 C4.1494 8.7002 5.2998 4.25 5.25 2.8994 " transform="translate(72.9502, 33.9502)"/>
    <path style="fill:#c7c7c7; fill-rule:nonzero;stroke:none;" d="M5.0498 2.75 C5 1.1504 4.5996 0 2.4502 0.0498 C0.2998 0.0498 0 1.25 0 2.8506 C0.0498 4.1504 1.2998 8.3506 2.6504 8.2998 C3.9502 8.2998 5.0498 4.0498 5.0498 2.75 " transform="translate(73, 34.0498)"/>
    <path style="fill:#cecece; fill-rule:nonzero;stroke:none;" d="M4.7998 2.6504 C4.75 1.1006 4.4004 0 2.3506 0.0508 C0.2998 0.1006 0 1.2002 0 2.7002 C0.0498 3.9502 1.2002 7.9502 2.5 7.9004 C3.7998 7.9004 4.7998 3.8506 4.7998 2.6504 " transform="translate(73.0498, 34.0996)"/>
    <path style="fill:#d5d5d5; fill-rule:nonzero;stroke:none;" d="M4.6006 2.4502 C4.5498 1.0498 4.25 0 2.25 0.0498 C0.2998 0.0498 0 1.0996 0.0498 2.5498 C0.0498 3.7002 1.2002 7.5 2.4004 7.5 C3.6504 7.4502 4.6006 3.6494 4.6006 2.4502 " transform="translate(73.0498, 34.2002)"/>
    <path style="fill:#dbdbdb; fill-rule:nonzero;stroke:none;" d="M4.3506 2.3496 C4.3506 1 4 0 2.1504 0.0498 C0.3008 0.0996 0 1.0996 0.0508 2.4502 C0.0508 3.5498 1.1504 7.1504 2.3008 7.0996 C3.4502 7.0996 4.4004 3.4502 4.3506 2.3496 " transform="translate(73.0996, 34.25)"/>
    <path style="fill:#e1e1e1; fill-rule:nonzero;stroke:none;" d="M4.0996 2.2002 C4.0996 0.9004 3.7998 0 2.0498 0 C0.25 0.0508 0 1 0 2.25 C0.0498 3.3008 1.0498 6.7002 2.1494 6.7002 C3.25 6.6504 4.1494 3.25 4.0996 2.2002 " transform="translate(73.1504, 34.3496)"/>
    <path style="fill:#e6e6e6; fill-rule:nonzero;stroke:none;" d="M3.8994 2.0996 C3.8496 0.8994 3.5498 0 1.8994 0.0498 C0.25 0.0498 0 0.9492 0 2.1494 C0.0498 3.1494 1 6.2998 2.0498 6.2998 C3.0498 6.25 3.8994 3.0498 3.8994 2.0996 " transform="translate(73.2002, 34.4004)"/>
    <path style="fill:#ebebeb; fill-rule:nonzero;stroke:none;" d="M3.7002 1.9502 C3.7002 0.7998 3.3994 0 1.8496 0 C0.25 0.0498 0 0.8496 0.0498 2 C0.0498 2.9004 0.9502 5.9004 1.9502 5.8496 C2.9502 5.8496 3.7002 2.8496 3.7002 1.9502 " transform="translate(73.2002, 34.5)"/>
    <path style="fill:#efefef; fill-rule:nonzero;stroke:none;" d="M3.4502 1.7998 C3.4502 0.75 3.2002 0 1.7002 0.0498 C0.25 0.0498 0 0.8506 0.0498 1.9004 C0.0498 2.75 0.9004 5.5 1.7998 5.5 C2.75 5.4502 3.5 2.6504 3.4502 1.7998 " transform="translate(73.25, 34.5498)"/>
    <path style="fill:#f3f3f3; fill-rule:nonzero;stroke:none;" d="M3.2002 1.6494 C3.2002 0.6992 2.9502 0 1.6006 0 C0.2002 0.0498 0 0.75 0 1.6992 C0.0498 2.5 0.8506 5.0498 1.7002 5.0498 C2.5498 5.0498 3.25 2.4492 3.2002 1.6494 " transform="translate(73.2998, 34.6504)"/>
    <path style="fill:#f6f6f6; fill-rule:nonzero;stroke:none;" d="M3 1.5498 C2.9502 0.6494 2.75 0 1.4502 0.0498 C0.2002 0.0498 0 0.7002 0 1.5996 C0 2.3496 0.75 4.7002 1.5508 4.6494 C2.3506 4.6494 3 2.2998 3 1.5498 " transform="translate(73.3496, 34.7002)"/>
    <path style="fill:#f9f9f9; fill-rule:nonzero;stroke:none;" d="M2.8008 1.4004 C2.8008 0.5498 2.5508 0 1.4004 0 C0.2002 0.0498 0 0.6006 0.0508 1.4502 C0.0508 2.1006 0.75 4.25 1.5 4.25 C2.2002 4.2002 2.8008 2.0498 2.8008 1.4004 " transform="translate(73.3496, 34.7998)"/>
    <path style="fill:#fbfbfb; fill-rule:nonzero;stroke:none;" d="M2.5498 1.3008 C2.5498 0.5508 2.3496 0 1.25 0.0508 C0.1992 0.0508 0 0.6006 0.0498 1.3008 C0.0498 1.9004 0.6494 3.8506 1.3496 3.8506 C2.0498 3.8506 2.5498 1.9004 2.5498 1.3008 " transform="translate(73.4004, 34.8496)"/>
    <path style="fill:#fdfdfd; fill-rule:nonzero;stroke:none;" d="M2.2998 1.0996 C2.2998 0.4502 2.1494 0 1.1494 0 C0.1494 0 0 0.5 0 1.1494 C0.0498 1.7002 0.5996 3.4502 1.2002 3.3994 C1.8496 3.3994 2.3496 1.6494 2.2998 1.0996 " transform="translate(73.4502, 34.9502)"/>
    <path style="fill:#fefefe; fill-rule:nonzero;stroke:none;" d="M2.0996 1 C2.0498 0.4502 1.9004 0 1 0 C0.1504 0.0498 0 0.4502 0 1.0498 C0 1.5 0.5498 3.0498 1.0996 3.0498 C1.6504 3.0498 2.0996 1.5 2.0996 1 " transform="translate(73.5, 35)"/>
    <path style="fill:#ffffff; fill-rule:nonzero;stroke:none;" d="M1.8506 0.8506 C1.8506 0.3506 1.7002 0 0.9004 0 C0.1006 0 0 0.4004 0 0.9004 C0 1.3008 0.4502 2.6006 0.9502 2.6006 C1.4502 2.6006 1.8506 1.25 1.8506 0.8506 " transform="translate(73.5498, 35.0996)"/>
    <path style="fill:#ffffff; fill-rule:nonzero;stroke:none;" d="M1.6504 0.75 C1.6504 0.2998 1.5 0 0.7998 0 C0.1006 0.0498 0 0.3496 0 0.75 C0.0498 1.0996 0.4502 2.25 0.9004 2.1992 C1.2998 2.1992 1.6504 1.0996 1.6504 0.75 " transform="translate(73.5498, 35.1504)"/>
   </g>
   <path style="fill:none;stroke:#000000; stroke-width:1; stroke-linecap:butt; stroke-linejoin:miter; stroke-dasharray:none;" d="M8.8506 5 C8.8008 2.1006 8.1504 0 4.3506 0.0498 C0.6006 0.1006 0 2.25 0.0508 5.1504 C0.1006 7.5498 2.3008 15.25 4.6504 15.2002 C7 15.1504 8.9004 7.4004 8.8506 5 " transform="translate(72.3496, 32.7998)"/>
   <path style="fill:none;stroke:#000000; stroke-width:1; stroke-linecap:butt; stroke-linejoin:miter; stroke-dasharray:none;" d="M8.8506 5 C8.8008 2.1006 8.1504 0 4.3506 0.0498 C0.6006 0.1006 0 2.25 0.0508 5.1504 C0.1006 7.5498 2.3008 15.25 4.6504 15.2002 C7 15.1504 8.9004 7.4004 8.8506 5 " transform="translate(72.3496, 32.7998)"/>
   <path style="fill:#ffffff; fill-rule:nonzero;stroke:#000000; stroke-width:1; stroke-linecap:butt; stroke-linejoin:miter; stroke-dasharray:none;" d="M0.0498 10.25 C0.0996 13.1494 0.75 15.25 4.5498 15.2002 C8.2998 15.1494 8.9004 13 8.8496 10.0996 C8.7998 7.7002 6.5996 0 4.25 0.0498 C1.9004 0.0996 0 7.8496 0.0498 10.25 " transform="translate(72.75, 47.9502)"/>
   <g id="Group5" clip-path="url(#Clip4)">
    <path style="fill:#000000; fill-rule:nonzero;stroke:none;" d="M8.6992 5 C8.6992 2.0996 8.0996 0 4.3496 0 C0.5996 0 0 2.0996 0 5 C0 7.3496 2 15 4.3496 15 C6.6992 15 8.6992 7.3496 8.6992 5 " transform="translate(42.6504, 33)"/>
    <path style="fill:#101010; fill-rule:nonzero;stroke:none;" d="M8.5498 4.8506 C8.5498 2.0508 7.9492 0 4.2998 0 C0.5996 0 0 2.0508 0 4.8506 C0 7.1504 2 14.6006 4.2998 14.6006 C6.5498 14.6006 8.5498 7.1504 8.5498 4.8506 " transform="translate(42.6504, 33.0996)"/>
    <path style="fill:#1f1f1f; fill-rule:nonzero;stroke:none;" d="M8.2998 4.75 C8.2998 2 7.7002 0 4.1494 0 C0.5996 0 0 2 0 4.75 C0 6.9492 1.9502 14.1992 4.1494 14.1992 C6.3994 14.1992 8.2998 6.9492 8.2998 4.75 " transform="translate(42.7002, 33.1504)"/>
    <path style="fill:#2e2e2e; fill-rule:nonzero;stroke:none;" d="M8.0498 4.5498 C8.0498 1.9004 7.5 0 4.0498 0 C0.5498 0 0 1.9004 0 4.5498 C0 6.75 1.8496 13.7998 4.0498 13.7998 C6.2002 13.7998 8.0498 6.75 8.0498 4.5498 " transform="translate(42.75, 33.25)"/>
    <path style="fill:#3c3c3c; fill-rule:nonzero;stroke:none;" d="M7.8506 4.4502 C7.8506 1.9004 7.2998 0 3.9004 0 C0.5498 0 0 1.9004 0 4.4502 C0 6.5498 1.7998 13.4004 3.9004 13.4004 C6 13.4004 7.8506 6.5498 7.8506 4.4502 " transform="translate(42.7998, 33.2998)"/>
    <path style="fill:#494949; fill-rule:nonzero;stroke:none;" d="M7.6006 4.2998 C7.6006 1.7998 7.0508 0 3.8008 0 C0.5 0 0 1.7998 0 4.2998 C0 6.3496 1.75 13 3.8008 13 C5.8506 13 7.6006 6.3496 7.6006 4.2998 " transform="translate(42.8496, 33.4004)"/>
    <path style="fill:#575757; fill-rule:nonzero;stroke:none;" d="M7.4004 4.2002 C7.4004 1.7998 6.9004 0 3.7002 0 C0.5508 0 0 1.7998 0 4.2002 C0 6.2002 1.75 12.5996 3.7002 12.5996 C5.7002 12.5996 7.4004 6.2002 7.4004 4.2002 " transform="translate(42.8496, 33.4502)"/>
    <path style="fill:#636363; fill-rule:nonzero;stroke:none;" d="M7.1992 4.0498 C7.1992 1.7002 6.6992 0 3.5996 0 C0.5 0 0 1.7002 0 4.0498 C0 5.9502 1.6494 12.2002 3.5996 12.2002 C5.5 12.2002 7.1992 5.9502 7.1992 4.0498 " transform="translate(42.9004, 33.5498)"/>
    <path style="fill:#707070; fill-rule:nonzero;stroke:none;" d="M6.9502 3.9502 C6.9502 1.6504 6.4502 0 3.4502 0 C0.5 0 0 1.6504 0 3.9502 C0 5.8008 1.5996 11.8008 3.4502 11.8008 C5.3496 11.8008 6.9502 5.8008 6.9502 3.9502 " transform="translate(42.9502, 33.5996)"/>
    <path style="fill:#7b7b7b; fill-rule:nonzero;stroke:none;" d="M6.7002 3.7998 C6.7002 1.5996 6.25 0 3.3496 0 C0.4502 0 0 1.5996 0 3.7998 C0 5.5498 1.5498 11.3994 3.3496 11.3994 C5.1504 11.3994 6.7002 5.5498 6.7002 3.7998 " transform="translate(43, 33.7002)"/>
    <path style="fill:#868686; fill-rule:nonzero;stroke:none;" d="M6.5498 3.6504 C6.5498 1.5498 6.0498 0 3.2998 0 C0.5 0 0 1.5498 0 3.6504 C0 5.4004 1.5498 11 3.2998 11 C5 11 6.5498 5.4004 6.5498 3.6504 " transform="translate(43, 33.75)"/>
    <path style="fill:#919191; fill-rule:nonzero;stroke:none;" d="M6.2998 3.5 C6.2998 1.5 5.8506 0 3.1504 0 C0.4502 0 0 1.5 0 3.5 C0 5.2002 1.4502 10.6006 3.1504 10.6006 C4.8506 10.6006 6.2998 5.2002 6.2998 3.5 " transform="translate(43.0498, 33.8496)"/>
    <path style="fill:#9b9b9b; fill-rule:nonzero;stroke:none;" d="M6.0508 3.3994 C6.0508 1.4492 5.6504 0 3.0508 0 C0.4502 0 0 1.4492 0 3.3994 C0 5 1.4004 10.1992 3.0508 10.1992 C4.6504 10.1992 6.0508 5 6.0508 3.3994 " transform="translate(43.0996, 33.9004)"/>
    <path style="fill:#a5a5a5; fill-rule:nonzero;stroke:none;" d="M5.8496 3.25 C5.8496 1.3496 5.3994 0 2.8994 0 C0.3994 0 0 1.3496 0 3.25 C0 4.7998 1.3496 9.7998 2.8994 9.7998 C4.5 9.7998 5.8496 4.7998 5.8496 3.25 " transform="translate(43.1504, 34)"/>
    <path style="fill:#aeaeae; fill-rule:nonzero;stroke:none;" d="M5.5996 3.1504 C5.5996 1.3506 5.2002 0 2.7998 0 C0.3994 0 0 1.3506 0 3.1504 C0 4.6006 1.2998 9.4004 2.7998 9.4004 C4.2998 9.4004 5.5996 4.6006 5.5996 3.1504 " transform="translate(43.2002, 34.0498)"/>
    <path style="fill:#b7b7b7; fill-rule:nonzero;stroke:none;" d="M5.3994 3 C5.3994 1.25 5.0498 0 2.7002 0 C0.3994 0 0 1.25 0 3 C0 4.3994 1.25 9 2.7002 9 C4.1494 9 5.3994 4.3994 5.3994 3 " transform="translate(43.2002, 34.1504)"/>
    <path style="fill:#bfbfbf; fill-rule:nonzero;stroke:none;" d="M5.2002 2.8994 C5.2002 1.25 4.7998 0 2.5996 0 C0.3496 0 0 1.25 0 2.8994 C0 4.25 1.2002 8.5996 2.5996 8.5996 C4 8.5996 5.2002 4.25 5.2002 2.8994 " transform="translate(43.25, 34.2002)"/>
    <path style="fill:#c7c7c7; fill-rule:nonzero;stroke:none;" d="M4.9502 2.7002 C4.9502 1.1504 4.6006 0 2.4502 0 C0.3506 0 0 1.1504 0 2.7002 C0 4 1.1504 8.2002 2.4502 8.2002 C3.7998 8.2002 4.9502 4 4.9502 2.7002 " transform="translate(43.2998, 34.2998)"/>
    <path style="fill:#cecece; fill-rule:nonzero;stroke:none;" d="M4.7002 2.6006 C4.7002 1.1006 4.4004 0 2.3506 0 C0.3008 0 0 1.1006 0 2.6006 C0 3.8506 1.1006 7.8008 2.3506 7.8008 C3.6006 7.8008 4.7002 3.8506 4.7002 2.6006 " transform="translate(43.3496, 34.3496)"/>
    <path style="fill:#d5d5d5; fill-rule:nonzero;stroke:none;" d="M4.5508 2.4502 C4.5508 1.0498 4.2002 0 2.3008 0 C0.3506 0 0 1.0498 0 2.4502 C0 3.5996 1.0508 7.3994 2.3008 7.3994 C3.5 7.3994 4.5508 3.5996 4.5508 2.4502 " transform="translate(43.3496, 34.4502)"/>
    <path style="fill:#dbdbdb; fill-rule:nonzero;stroke:none;" d="M4.2998 2.2998 C4.2998 0.9502 4 0 2.1494 0 C0.2998 0 0 0.9502 0 2.2998 C0 3.4004 1 6.9502 2.1494 6.9502 C3.2998 6.9502 4.2998 3.4004 4.2998 2.2998 " transform="translate(43.4004, 34.5498)"/>
    <path style="fill:#e1e1e1; fill-rule:nonzero;stroke:none;" d="M4.0498 2.2002 C4.0498 0.9502 3.7998 0 2.0498 0 C0.2998 0 0 0.9502 0 2.2002 C0 3.25 0.9502 6.6006 2.0498 6.6006 C3.0996 6.6006 4.0498 3.25 4.0498 2.2002 " transform="translate(43.4502, 34.5996)"/>
    <path style="fill:#e6e6e6; fill-rule:nonzero;stroke:none;" d="M3.8496 2.0498 C3.8496 0.8496 3.5498 0 1.9004 0 C0.25 0 0 0.8496 0 2.0498 C0 3 0.9004 6.1494 1.9004 6.1494 C2.9502 6.1494 3.8496 3 3.8496 2.0498 " transform="translate(43.5, 34.7002)"/>
    <path style="fill:#ebebeb; fill-rule:nonzero;stroke:none;" d="M3.6006 1.9502 C3.6006 0.7998 3.3506 0 1.7998 0 C0.25 0 0 0.7998 0 1.9502 C0 2.8496 0.7998 5.7998 1.7998 5.7998 C2.75 5.7998 3.6006 2.8496 3.6006 1.9502 " transform="translate(43.5498, 34.75)"/>
    <path style="fill:#efefef; fill-rule:nonzero;stroke:none;" d="M3.4004 1.75 C3.4004 0.75 3.2002 0 1.7002 0 C0.25 0 0 0.75 0 1.75 C0 2.6006 0.7998 5.3506 1.7002 5.3506 C2.6504 5.3506 3.4004 2.6006 3.4004 1.75 " transform="translate(43.5498, 34.8496)"/>
    <path style="fill:#f3f3f3; fill-rule:nonzero;stroke:none;" d="M3.2002 1.6494 C3.2002 0.6992 2.9502 0 1.6006 0 C0.25 0 0 0.6992 0 1.6494 C0 2.4492 0.75 5 1.6006 5 C2.4502 5 3.2002 2.4492 3.2002 1.6494 " transform="translate(43.5996, 34.9004)"/>
    <path style="fill:#f6f6f6; fill-rule:nonzero;stroke:none;" d="M2.9492 1.5 C2.9492 0.6504 2.75 0 1.4492 0 C0.1992 0 0 0.6504 0 1.5 C0 2.25 0.6992 4.5498 1.4492 4.5498 C2.25 4.5498 2.9492 2.25 2.9492 1.5 " transform="translate(43.6504, 35)"/>
    <path style="fill:#f9f9f9; fill-rule:nonzero;stroke:none;" d="M2.7002 1.4004 C2.7002 0.6006 2.5 0 1.3496 0 C0.2002 0 0 0.6006 0 1.4004 C0 2.0498 0.5996 4.2002 1.3496 4.2002 C2.0996 4.2002 2.7002 2.0498 2.7002 1.4004 " transform="translate(43.7002, 35.0498)"/>
    <path style="fill:#fbfbfb; fill-rule:nonzero;stroke:none;" d="M2.5498 1.25 C2.5498 0.5 2.3496 0 1.2998 0 C0.2002 0 0 0.5 0 1.25 C0 1.8496 0.5996 3.75 1.2998 3.75 C1.9502 3.75 2.5498 1.8496 2.5498 1.25 " transform="translate(43.7002, 35.1504)"/>
    <path style="fill:#fdfdfd; fill-rule:nonzero;stroke:none;" d="M2.2998 1.1494 C2.2998 0.5 2.1504 0 1.1504 0 C0.1504 0 0 0.5 0 1.1494 C0 1.6494 0.5498 3.3994 1.1504 3.3994 C1.75 3.3994 2.2998 1.6494 2.2998 1.1494 " transform="translate(43.75, 35.2002)"/>
    <path style="fill:#fefefe; fill-rule:nonzero;stroke:none;" d="M2.0498 1 C2.0498 0.4004 1.9004 0 1.0498 0 C0.1504 0 0 0.4004 0 1 C0 1.4502 0.5 3 1.0498 3 C1.6006 3 2.0498 1.4502 2.0498 1 " transform="translate(43.7998, 35.2998)"/>
    <path style="fill:#ffffff; fill-rule:nonzero;stroke:none;" d="M1.8506 0.8506 C1.8506 0.4004 1.7002 0 0.9004 0 C0.1006 0 0 0.4004 0 0.8506 C0 1.3008 0.4004 2.6006 0.9004 2.6006 C1.4004 2.6006 1.8506 1.3008 1.8506 0.8506 " transform="translate(43.8496, 35.3496)"/>
    <path style="fill:#ffffff; fill-rule:nonzero;stroke:none;" d="M1.5996 0.7002 C1.5996 0.2998 1.5 0 0.7998 0 C0.0996 0 0 0.2998 0 0.7002 C0 1.0498 0.3496 2.2002 0.7998 2.2002 C1.1992 2.2002 1.5996 1.0498 1.5996 0.7002 " transform="translate(43.9004, 35.4502)"/>
   </g>
   <path style="fill:none;stroke:#000000; stroke-width:1; stroke-linecap:butt; stroke-linejoin:miter; stroke-dasharray:none;" d="M8.6992 5 C8.6992 2.0996 8.0996 0 4.3496 0 C0.5996 0 0 2.0996 0 5 C0 7.3496 2 15 4.3496 15 C6.6992 15 8.6992 7.3496 8.6992 5 " transform="translate(42.6504, 33)"/>
   <path style="fill:none;stroke:#000000; stroke-width:1; stroke-linecap:butt; stroke-linejoin:miter; stroke-dasharray:none;" d="M8.6992 5 C8.6992 2.0996 8.0996 0 4.3496 0 C0.5996 0 0 2.0996 0 5 C0 7.3496 2 15 4.3496 15 C6.6992 15 8.6992 7.3496 8.6992 5 " transform="translate(42.6504, 33)"/>
   <path style="fill:#ffffff; fill-rule:nonzero;stroke:#000000; stroke-width:1; stroke-linecap:butt; stroke-linejoin:miter; stroke-dasharray:none;" d="M0 10 C0 12.9004 0.5996 15 4.3496 15 C8.0996 15 8.6992 12.9004 8.6992 10 C8.6992 7.6504 6.6992 0 4.3496 0 C2 0 0 7.6504 0 10 " transform="translate(42.6504, 48)"/>
   <path style="fill:#000000; fill-rule:nonzero;stroke:none;" d="M0.6 1 L0 0 L30.6 0 L30 1 L0.6 1 Z" transform="translate(235.7, 49.5)"/>
   <path style="fill:#000000; fill-rule:nonzero;stroke:none;" d="M0 1 L0 0 L25.8 0 L25.8 1 L0 1 Z" transform="translate(238.1, 53.0996)"/>
   <path style="fill:#000000; fill-rule:nonzero;stroke:none;" d="M0.85 26 L0 26.5 L0 25.5 L14.7 0 L15.3 1 L0.85 26 Z" transform="translate(221, 49.5)"/>
   <path style="fill:#000000; fill-rule:nonzero;stroke:none;" d="M0 1 L0.6 0 L15.3 25.5 L15.3 26.5 L14.45 26 L0 1 Z" transform="translate(265.7, 49.5)"/>
   <path style="fill:#000000; fill-rule:evenodd;stroke:none;" d="M0 7.29 L3.29 7.29 C3.98 7.29 4.49 7.0996 4.88 6.6796 C5.24 6.2998 5.44 5.7802 5.44 5.2099 C5.44 4.33 5.04 3.7998 4.11 3.4404 C4.77 3.1298 5.12 2.5898 5.12 1.8496 C5.12 1.3203 4.92 0.8496 4.54 0.5097 C4.16 0.1601 3.66 0 2.96 0 L0 0 L0 7.29 Z M0.93 3.1396 L0.93 0.8203 L2.73 0.8203 C3.25 0.8203 3.54 0.8896 3.79 1.08 C4.05 1.2802 4.19 1.58 4.19 1.9804 C4.19 2.3701 4.05 2.6796 3.79 2.8798 C3.54 3.0703 3.25 3.1396 2.73 3.1396 L0.93 3.1396 Z M0.93 6.4697 L0.93 3.9599 L3.2 3.9599 C3.65 3.9599 3.95 4.0703 4.17 4.3095 C4.39 4.54 4.51 4.8603 4.51 5.2197 C4.51 5.5703 4.39 5.8896 4.17 6.1201 C3.95 6.3603 3.65 6.4697 3.2 6.4697 L0.93 6.4697 Z" transform="translate(204.04, 46.21)"/>
   <path style="fill:#000000; fill-rule:nonzero;stroke:none;" d="M0 0.5 L0.85 0 L12.4 20 L12.4 21 L11.8 21 L0 0.5 Z" transform="translate(208.6, 55)"/>
   <path style="fill:#000000; fill-rule:evenodd;stroke:none;" d="M4.57 5.1 L5.32 7.29 L6.36 7.29 L3.8 0 L2.6 0 L0 7.29 L0.99 7.29 L1.76 5.1 L4.57 5.1 Z M4.31 4.32 L1.99 4.32 L3.19 1 L4.31 4.32 Z" transform="translate(202.92, 98.21)"/>
   <path style="fill:#000000; fill-rule:nonzero;stroke:none;" d="M0.85 21.5 L0 21 L12.1 0 L12.7 0 L13 0.5 L0.85 21.5 Z" transform="translate(208.3, 76)"/>
   <path style="fill:#000000; fill-rule:evenodd;stroke:none;" d="M0 7.29 L3.29 7.29 C3.98 7.29 4.49 7.0996 4.88 6.6796 C5.24 6.2998 5.44 5.7802 5.44 5.2099 C5.44 4.33 5.04 3.7998 4.11 3.4404 C4.77 3.1298 5.12 2.5898 5.12 1.8496 C5.12 1.3203 4.92 0.8496 4.54 0.5097 C4.16 0.1601 3.66 0 2.96 0 L0 0 L0 7.29 Z M0.93 3.1396 L0.93 0.8203 L2.73 0.8203 C3.25 0.8203 3.54 0.8896 3.79 1.08 C4.05 1.2802 4.19 1.58 4.19 1.9804 C4.19 2.3701 4.05 2.6796 3.79 2.8798 C3.54 3.0703 3.25 3.1396 2.73 3.1396 L0.93 3.1396 Z M0.93 6.4697 L0.93 3.9599 L3.2 3.9599 C3.65 3.9599 3.95 4.0703 4.17 4.3095 C4.39 4.54 4.51 4.8603 4.51 5.2197 C4.51 5.5703 4.39 5.8896 4.17 6.1201 C3.95 6.3603 3.65 6.4697 3.2 6.4697 L0.93 6.4697 Z" transform="translate(294.04, 46.21)"/>
   <path style="fill:#000000; fill-rule:nonzero;stroke:none;" d="M11.55 0 L12.4 0.5 L0.6 21 L0 21 L0 20 L11.55 0 Z" transform="translate(281, 55)"/>
   <path style="fill:#000000; fill-rule:evenodd;stroke:none;" d="M4.57 5.1 L5.32 7.29 L6.36 7.29 L3.8 0 L2.6 0 L0 7.29 L0.99 7.29 L1.76 5.1 L4.57 5.1 Z M4.31 4.32 L1.99 4.32 L3.19 1 L4.31 4.32 Z" transform="translate(292.92, 98.21)"/>
   <path style="fill:#000000; fill-rule:nonzero;stroke:none;" d="M13.1 21.1504 L12.25 21.6504 L0 0.5 L0.3 0 L0.9 0 L13.1 21.1504 Z" transform="translate(280.7, 76)"/>
   <g id="Group6" clip-path="url(#Clip5)">
    <path style="fill:#000000; fill-rule:nonzero;stroke:none;" d="M12.4 10.6494 C15.9 10.4502 18.35 9.5996 18.15 5.0996 C17.9 0.5996 15.35 0 11.9 0.2002 C9.05 0.2998 0 3.2002 0.15 6.0498 C0.3 8.8496 9.6 10.7998 12.4 10.6494 " transform="translate(220.85, 69.9502)"/>
    <path style="fill:#101010; fill-rule:nonzero;stroke:none;" d="M12.05 10.4004 C15.45 10.2002 17.85 9.3496 17.6 5 C17.4 0.5996 14.9 0 11.55 0.2002 C8.8 0.3496 0 3.1504 0.1 5.9004 C0.25 8.6504 9.3 10.5498 12.05 10.4004 " transform="translate(221, 70)"/>
    <path style="fill:#1f1f1f; fill-rule:nonzero;stroke:none;" d="M11.75 10.1006 C15 9.9004 17.35 9.1006 17.15 4.8506 C16.95 0.5508 14.5 0 11.25 0.1504 C8.55 0.3008 0 3.0508 0.15 5.7002 C0.3 8.3506 9.05 10.2002 11.75 10.1006 " transform="translate(221.1, 70.0996)"/>
    <path style="fill:#2e2e2e; fill-rule:nonzero;stroke:none;" d="M11.4 9.8496 C14.55 9.6494 16.85 8.8496 16.65 4.6992 C16.4 0.5498 14.05 0 10.9 0.1494 C8.3 0.2998 0 3 0.1 5.5498 C0.25 8.1494 8.8 9.9492 11.4 9.8496 " transform="translate(221.25, 70.1504)"/>
    <path style="fill:#3c3c3c; fill-rule:nonzero;stroke:none;" d="M11.1 9.5 C14.15 9.3496 16.4 8.5996 16.15 4.5498 C15.95 0.5 13.7 0 10.6 0.1504 C8.05 0.25 0 2.8496 0.15 5.4004 C0.25 7.9004 8.55 9.6504 11.1 9.5 " transform="translate(221.35, 70.25)"/>
    <path style="fill:#494949; fill-rule:nonzero;stroke:none;" d="M10.7 9.25 C13.7 9.1006 15.85 8.3506 15.65 4.4502 C15.45 0.5498 13.25 0 10.25 0.1504 C7.8 0.2998 0 2.7998 0.1 5.25 C0.25 7.7002 8.25 9.4004 10.7 9.25 " transform="translate(221.5, 70.2998)"/>
    <path style="fill:#575757; fill-rule:nonzero;stroke:none;" d="M10.4 9 C13.3 8.8506 15.4 8.1006 15.2 4.3506 C15 0.5508 12.85 0 9.95 0.1504 C7.6 0.3008 0 2.75 0.15 5.1006 C0.25 7.5 8.05 9.1504 10.4 9 " transform="translate(221.6, 70.3496)"/>
    <path style="fill:#636363; fill-rule:nonzero;stroke:none;" d="M10.05 8.7002 C12.85 8.5498 14.85 7.8496 14.7 4.1494 C14.5 0.5 12.4 0 9.6 0.1494 C7.3 0.25 0 2.5996 0.1 4.8994 C0.2 7.2002 7.75 8.7998 10.05 8.7002 " transform="translate(221.75, 70.4502)"/>
    <path style="fill:#707070; fill-rule:nonzero;stroke:none;" d="M9.75 8.4502 C12.45 8.2998 14.4 7.5996 14.2 4.0498 C14.05 0.5 12.05 0 9.3 0.1504 C7.1 0.25 0 2.5498 0.1 4.7998 C0.25 7 7.5 8.5498 9.75 8.4502 " transform="translate(221.85, 70.5)"/>
    <path style="fill:#7b7b7b; fill-rule:nonzero;stroke:none;" d="M9.4 8.2002 C12 8.0498 13.9 7.4004 13.7 3.9502 C13.55 0.5 11.6 0 9 0.1504 C6.85 0.25 0 2.5 0.1 4.6504 C0.2 6.7998 7.25 8.2998 9.4 8.2002 " transform="translate(222, 70.5498)"/>
    <path style="fill:#868686; fill-rule:nonzero;stroke:none;" d="M9.1 7.8994 C11.6 7.75 13.4 7.0996 13.25 3.75 C13.05 0.4492 11.2 0 8.7 0.0996 C6.6 0.25 0 2.3994 0.1 4.4492 C0.2 6.5498 7 8 9.1 7.8994 " transform="translate(222.1, 70.6504)"/>
    <path style="fill:#919191; fill-rule:nonzero;stroke:none;" d="M8.7 7.5996 C11.15 7.5 12.9 6.8496 12.75 3.6494 C12.55 0.4502 10.75 0 8.35 0.1494 C6.35 0.25 0 2.2998 0.1 4.2998 C0.2 6.3496 6.75 7.75 8.7 7.5996 " transform="translate(222.25, 70.7002)"/>
    <path style="fill:#9b9b9b; fill-rule:nonzero;stroke:none;" d="M8.4 7.2998 C10.75 7.2002 12.4 6.6006 12.25 3.5 C12.1 0.4004 10.4 0 8.05 0.1006 C6.15 0.2002 0 2.2002 0.1 4.1504 C0.2 6.0498 6.5 7.4004 8.4 7.2998 " transform="translate(222.35, 70.7998)"/>
    <path style="fill:#a5a5a5; fill-rule:nonzero;stroke:none;" d="M8.05 7.0508 C10.3 6.9502 11.9 6.3506 11.75 3.4004 C11.6 0.4004 9.95 0 7.7 0.1006 C5.85 0.2002 0 2.1504 0.1 4 C0.2 5.8506 6.2 7.1504 8.05 7.0508 " transform="translate(222.5, 70.8496)"/>
    <path style="fill:#aeaeae; fill-rule:nonzero;stroke:none;" d="M7.75 6.7998 C9.9 6.6992 11.45 6.1494 11.3 3.25 C11.15 0.3994 9.55 0 7.4 0.1494 C5.65 0.25 0 2.0498 0.1 3.8496 C0.2 5.6494 6 6.8994 7.75 6.7998 " transform="translate(222.6, 70.9004)"/>
    <path style="fill:#b7b7b7; fill-rule:nonzero;stroke:none;" d="M7.4 6.5 C9.45 6.4004 10.9 5.8496 10.8 3.0996 C10.65 0.3496 9.1 0 7.05 0.0996 C5.35 0.2002 0 1.9502 0.1 3.7002 C0.15 5.4004 5.7 6.5996 7.4 6.5 " transform="translate(222.75, 71)"/>
    <path style="fill:#bfbfbf; fill-rule:nonzero;stroke:none;" d="M7.05 6.25 C9.05 6.1504 10.45 5.6504 10.3 3 C10.2 0.3506 8.75 0 6.75 0.1006 C5.15 0.2002 0 1.9004 0.1 3.5498 C0.2 5.2002 5.45 6.3506 7.05 6.25 " transform="translate(222.85, 71.0498)"/>
    <path style="fill:#c7c7c7; fill-rule:nonzero;stroke:none;" d="M6.7 5.9492 C8.6 5.8496 9.9 5.3496 9.8 2.8496 C9.65 0.2998 8.3 0 6.4 0.0996 C4.9 0.1494 0 1.7998 0.05 3.3496 C0.15 4.8994 5.2 6 6.7 5.9492 " transform="translate(223, 71.1504)"/>
    <path style="fill:#cecece; fill-rule:nonzero;stroke:none;" d="M6.4 5.7002 C8.2 5.5996 9.45 5.0996 9.35 2.7002 C9.2 0.2998 7.9 0 6.1 0.0996 C4.65 0.1494 0 1.7002 0.1 3.2002 C0.15 4.7002 4.95 5.75 6.4 5.7002 " transform="translate(223.1, 71.2002)"/>
    <path style="fill:#d5d5d5; fill-rule:nonzero;stroke:none;" d="M6.05 5.4004 C7.75 5.3496 8.95 4.9004 8.8 2.5996 C8.7 0.3496 7.45 0 5.8 0.0996 C4.4 0.2002 0 1.6504 0.05 3.0996 C0.15 4.5 4.65 5.5 6.05 5.4004 " transform="translate(223.25, 71.25)"/>
    <path style="fill:#dbdbdb; fill-rule:nonzero;stroke:none;" d="M5.75 5.1006 C7.3 5.0508 8.45 4.6006 8.35 2.4502 C8.25 0.3008 7.1 0 5.5 0.0508 C4.2 0.1504 0 1.5508 0.1 2.9004 C0.15 4.25 4.45 5.2002 5.75 5.1006 " transform="translate(223.35, 71.3496)"/>
    <path style="fill:#e1e1e1; fill-rule:nonzero;stroke:none;" d="M5.35 4.8496 C6.85 4.7998 7.95 4.3994 7.85 2.3496 C7.75 0.2998 6.65 0 5.15 0.0996 C3.9 0.1494 0 1.5 0.05 2.75 C0.1 4.0498 4.15 4.8994 5.35 4.8496 " transform="translate(223.5, 71.4004)"/>
    <path style="fill:#e6e6e6; fill-rule:nonzero;stroke:none;" d="M5.05 4.5498 C6.45 4.4502 7.5 4.0996 7.4 2.1504 C7.3 0.25 6.25 0 4.85 0.0498 C3.7 0.0996 0 1.3496 0.1 2.5498 C0.15 3.75 3.9 4.5996 5.05 4.5498 " transform="translate(223.6, 71.5)"/>
    <path style="fill:#ebebeb; fill-rule:nonzero;stroke:none;" d="M4.7 4.2998 C6 4.2002 6.95 3.8506 6.85 2.0498 C6.8 0.25 5.8 0 4.5 0.0498 C3.45 0.1504 0 1.2998 0.05 2.4502 C0.1 3.5498 3.65 4.3506 4.7 4.2998 " transform="translate(223.75, 71.5498)"/>
    <path style="fill:#efefef; fill-rule:nonzero;stroke:none;" d="M4.4 4.0508 C5.6 3.9502 6.5 3.6504 6.4 1.9502 C6.3 0.25 5.4 0 4.2 0.1006 C3.2 0.1504 0 1.25 0.05 2.3008 C0.15 3.3506 3.4 4.1006 4.4 4.0508 " transform="translate(223.85, 71.5996)"/>
    <path style="fill:#f3f3f3; fill-rule:nonzero;stroke:none;" d="M4.05 3.75 C5.15 3.6494 5.95 3.3496 5.9 1.7998 C5.8 0.2002 5 0 3.85 0.0498 C2.95 0.0996 0 1.0996 0.05 2.0996 C0.1 3.0996 3.1 3.7998 4.05 3.75 " transform="translate(224, 71.7002)"/>
    <path style="fill:#f6f6f6; fill-rule:nonzero;stroke:none;" d="M3.75 3.4502 C4.75 3.4004 5.5 3.1504 5.45 1.6504 C5.35 0.2002 4.6 0 3.55 0.0498 C2.7 0.0996 0 1.0498 0.05 1.9502 C0.1 2.9004 2.9 3.5 3.75 3.4502 " transform="translate(224.1, 71.75)"/>
    <path style="fill:#f9f9f9; fill-rule:nonzero;stroke:none;" d="M3.35 3.2002 C4.3 3.1504 5 2.9004 4.9 1.5498 C4.85 0.2002 4.15 0 3.2 0.1006 C2.45 0.1006 0 1 0.05 1.8506 C0.1 2.7002 2.6 3.25 3.35 3.2002 " transform="translate(224.25, 71.7998)"/>
    <path style="fill:#fbfbfb; fill-rule:nonzero;stroke:none;" d="M3 2.8994 C3.85 2.8496 4.45 2.5996 4.4 1.3994 C4.35 0.1494 3.7 0 2.9 0.0498 C2.2 0.0996 0 0.8994 0 1.6494 C0.05 2.3994 2.3 2.9492 3 2.8994 " transform="translate(224.4, 71.9004)"/>
    <path style="fill:#fdfdfd; fill-rule:nonzero;stroke:none;" d="M2.7 2.6494 C3.45 2.5996 4 2.3994 3.95 1.2998 C3.9 0.1494 3.35 0 2.6 0.0498 C1.95 0.0996 0 0.7998 0.05 1.5 C0.05 2.2002 2.1 2.7002 2.7 2.6494 " transform="translate(224.5, 71.9502)"/>
    <path style="fill:#fefefe; fill-rule:nonzero;stroke:none;" d="M2.35 2.3506 C3 2.2998 3.45 2.1006 3.4 1.1006 C3.4 0.1006 2.9 0 2.25 0 C1.7 0.0498 0 0.7002 0 1.2998 C0.05 1.9502 1.8 2.4004 2.35 2.3506 " transform="translate(224.65, 72.0498)"/>
    <path style="fill:#ffffff; fill-rule:nonzero;stroke:none;" d="M2.05 2.1006 C2.6 2.0508 3 1.9004 2.95 1 C2.9 0.1006 2.5 0 1.95 0.0508 C1.5 0.0508 0 0.6504 0.05 1.2002 C0.05 1.75 1.55 2.1006 2.05 2.1006 " transform="translate(224.75, 72.0996)"/>
    <path style="fill:#ffffff; fill-rule:nonzero;stroke:none;" d="M1.65 1.8496 C2.15 1.7998 2.5 1.6494 2.45 0.8994 C2.4 0.1494 2.05 0 1.6 0.0498 C1.2 0.0996 0 0.5498 0 1.0498 C0 1.5498 1.3 1.8496 1.65 1.8496 " transform="translate(224.9, 72.1504)"/>
   </g>
   <path style="fill:none;stroke:#000000; stroke-width:1; stroke-linecap:butt; stroke-linejoin:miter; stroke-dasharray:none;" d="M12.4 10.6494 C15.9 10.4502 18.35 9.5996 18.15 5.0996 C17.9 0.5996 15.35 0 11.9 0.2002 C9.05 0.2998 0 3.2002 0.15 6.0498 C0.3 8.8496 9.6 10.7998 12.4 10.6494 " transform="translate(220.85, 69.9502)"/>
   <path style="fill:none;stroke:#000000; stroke-width:1; stroke-linecap:butt; stroke-linejoin:miter; stroke-dasharray:none;" d="M12.4 10.6494 C15.9 10.4502 18.35 9.5996 18.15 5.0996 C17.9 0.5996 15.35 0 11.9 0.2002 C9.05 0.2998 0 3.2002 0.15 6.0498 C0.3 8.8496 9.6 10.7998 12.4 10.6494 " transform="translate(220.85, 69.9502)"/>
   <path style="fill:#ffffff; fill-rule:nonzero;stroke:#000000; stroke-width:1; stroke-linecap:butt; stroke-linejoin:miter; stroke-dasharray:none;" d="M5.95 0.1494 C2.45 0.3496 0 1.2002 0.2 5.7002 C0.45 10.2002 3 10.7998 6.45 10.6494 C9.3 10.5 18.35 7.5996 18.2 4.7998 C18.05 1.9502 8.75 0 5.95 0.1494 " transform="translate(202.8, 71.2002)"/>
   <g id="Group7" clip-path="url(#Clip6)">
    <path style="fill:#000000; fill-rule:nonzero;stroke:none;" d="M5.95 0.1504 C2.5 0.3506 0 1.25 0.3 5.75 C0.55 10.25 3.1 10.8506 6.55 10.6504 C9.4 10.4502 18.4 7.5 18.25 4.7002 C18.1 1.8506 8.8 0 5.95 0.1504 " transform="translate(262.75, 71.2998)"/>
    <path style="fill:#101010; fill-rule:nonzero;stroke:none;" d="M5.8 0.1504 C2.4 0.3506 0 1.25 0.25 5.6006 C0.55 10 3 10.5508 6.4 10.3506 C9.15 10.2002 17.9 7.3008 17.75 4.5508 C17.6 1.8506 8.55 0 5.8 0.1504 " transform="translate(262.85, 71.3496)"/>
    <path style="fill:#1f1f1f; fill-rule:nonzero;stroke:none;" d="M5.6 0.1494 C2.35 0.3496 0 1.1992 0.25 5.4492 C0.5 9.6992 2.95 10.25 6.2 10.0996 C8.9 9.8994 17.4 7.0996 17.25 4.4492 C17.1 1.7998 8.3 0 5.6 0.1494 " transform="translate(262.95, 71.4004)"/>
    <path style="fill:#2e2e2e; fill-rule:nonzero;stroke:none;" d="M5.45 0.1494 C2.3 0.3496 0 1.1494 0.25 5.2998 C0.5 9.4502 2.85 10 6.05 9.7998 C8.65 9.6494 16.9 6.8994 16.75 4.2998 C16.6 1.75 8.05 0 5.45 0.1494 " transform="translate(263.05, 71.4502)"/>
    <path style="fill:#3c3c3c; fill-rule:nonzero;stroke:none;" d="M5.3 0.1504 C2.2 0.3496 0 1.1504 0.25 5.1504 C0.5 9.2002 2.75 9.7002 5.85 9.5498 C8.4 9.4004 16.45 6.7002 16.3 4.2002 C16.15 1.7002 7.8 0 5.3 0.1504 " transform="translate(263.15, 71.5)"/>
    <path style="fill:#494949; fill-rule:nonzero;stroke:none;" d="M5.15 0.1504 C2.15 0.3506 0 1.1006 0.25 5 C0.45 8.9004 2.7 9.4502 5.7 9.25 C8.1 9.1006 15.95 6.5498 15.8 4.1006 C15.65 1.6504 7.6 0 5.15 0.1504 " transform="translate(263.25, 71.5498)"/>
    <path style="fill:#575757; fill-rule:nonzero;stroke:none;" d="M5 0.1504 C2.1 0.3008 0 1.0508 0.25 4.8506 C0.45 8.6504 2.6 9.1504 5.5 9 C7.85 8.8506 15.45 6.3506 15.3 3.9502 C15.15 1.6006 7.35 0 5 0.1504 " transform="translate(263.35, 71.5996)"/>
    <path style="fill:#636363; fill-rule:nonzero;stroke:none;" d="M4.8 0.1494 C2 0.2998 0 1.0498 0.2 4.6992 C0.45 8.3994 2.5 8.8994 5.3 8.6992 C7.6 8.5498 14.95 6.1494 14.8 3.8496 C14.65 1.5498 7.1 0 4.8 0.1494 " transform="translate(263.45, 71.6504)"/>
    <path style="fill:#707070; fill-rule:nonzero;stroke:none;" d="M4.65 0.1494 C1.95 0.2998 0 1 0.2 4.5498 C0.4 8.1494 2.45 8.5996 5.15 8.4502 C7.35 8.2998 14.45 5.9502 14.3 3.75 C14.15 1.5 6.85 0 4.65 0.1494 " transform="translate(263.55, 71.7002)"/>
    <path style="fill:#7b7b7b; fill-rule:nonzero;stroke:none;" d="M4.5 0.1504 C1.9 0.2998 0 1 0.2 4.4502 C0.4 7.8496 2.35 8.2998 4.95 8.1504 C7.1 8.0498 13.95 5.75 13.8 3.5996 C13.7 1.4502 6.65 0 4.5 0.1504 " transform="translate(263.65, 71.75)"/>
    <path style="fill:#868686; fill-rule:nonzero;stroke:none;" d="M4.35 0.1504 C1.8 0.2998 0 0.9502 0.2 4.2998 C0.4 7.6006 2.25 8.0498 4.8 7.9004 C6.85 7.75 13.45 5.5498 13.3 3.5 C13.2 1.4004 6.4 0 4.35 0.1504 " transform="translate(263.75, 71.7998)"/>
    <path style="fill:#919191; fill-rule:nonzero;stroke:none;" d="M4.15 0.1504 C1.75 0.3008 0 0.9004 0.2 4.1504 C0.4 7.3506 2.2 7.75 4.6 7.6006 C6.6 7.5 12.95 5.4004 12.8 3.3506 C12.7 1.3506 6.15 0 4.15 0.1504 " transform="translate(263.85, 71.8496)"/>
    <path style="fill:#9b9b9b; fill-rule:nonzero;stroke:none;" d="M4 0.1494 C1.65 0.2998 0 0.8994 0.2 4 C0.35 7.0996 2.1 7.5 4.45 7.3496 C6.35 7.25 12.45 5.1992 12.35 3.25 C12.2 1.2998 5.9 0 4 0.1494 " transform="translate(263.95, 71.9004)"/>
    <path style="fill:#a5a5a5; fill-rule:nonzero;stroke:none;" d="M3.85 0.1494 C1.6 0.25 0 0.8496 0.15 3.8496 C0.35 6.7998 2 7.2002 4.25 7.0498 C6.1 6.9502 11.95 5 11.85 3.1494 C11.75 1.25 5.7 0 3.85 0.1494 " transform="translate(264.05, 71.9502)"/>
    <path style="fill:#aeaeae; fill-rule:nonzero;stroke:none;" d="M3.7 0.1006 C1.55 0.2002 0 0.7998 0.15 3.6504 C0.35 6.5 1.9 6.9004 4.05 6.75 C5.85 6.6504 11.45 4.75 11.35 2.9502 C11.25 1.1504 5.45 0 3.7 0.1006 " transform="translate(264.15, 72.0498)"/>
    <path style="fill:#b7b7b7; fill-rule:nonzero;stroke:none;" d="M3.55 0.1006 C1.45 0.2002 0 0.75 0.15 3.5 C0.3 6.25 1.85 6.6006 3.9 6.5 C5.6 6.3506 10.95 4.5508 10.85 2.8506 C10.75 1.1504 5.2 0 3.55 0.1006 " transform="translate(264.25, 72.0996)"/>
    <path style="fill:#bfbfbf; fill-rule:nonzero;stroke:none;" d="M3.35 0.0996 C1.4 0.1992 0 0.6992 0.15 3.3496 C0.3 6 1.75 6.2998 3.7 6.1992 C5.35 6.0996 10.45 4.3496 10.35 2.6992 C10.25 1.0996 4.95 0 3.35 0.0996 " transform="translate(264.35, 72.1504)"/>
    <path style="fill:#c7c7c7; fill-rule:nonzero;stroke:none;" d="M3.2 0.0996 C1.35 0.2002 0 0.7002 0.15 3.2002 C0.3 5.7002 1.65 6.0498 3.55 5.9502 C5.05 5.8496 9.95 4.1494 9.85 2.5996 C9.75 1.0498 4.75 0 3.2 0.0996 " transform="translate(264.45, 72.2002)"/>
    <path style="fill:#cecece; fill-rule:nonzero;stroke:none;" d="M3.05 0.0498 C1.25 0.2002 0 0.6504 0.15 3.0498 C0.25 5.4502 1.6 5.75 3.35 5.6504 C4.8 5.5498 9.45 4 9.35 2.5 C9.3 1 4.5 0 3.05 0.0498 " transform="translate(264.55, 72.25)"/>
    <path style="fill:#d5d5d5; fill-rule:nonzero;stroke:none;" d="M2.9 0.0498 C1.2 0.2002 0 0.6504 0.1 2.9004 C0.25 5.2002 1.5 5.5 3.2 5.4004 C4.55 5.2998 8.95 3.7998 8.9 2.3506 C8.8 0.9502 4.25 0 2.9 0.0498 " transform="translate(264.65, 72.2998)"/>
    <path style="fill:#dbdbdb; fill-rule:nonzero;stroke:none;" d="M2.7 0.0508 C1.15 0.1504 0 0.6006 0.1 2.75 C0.25 4.9004 1.4 5.2002 3 5.1006 C4.3 5.0508 8.45 3.6006 8.4 2.25 C8.3 0.9004 4 0 2.7 0.0508 " transform="translate(264.75, 72.3496)"/>
    <path style="fill:#e1e1e1; fill-rule:nonzero;stroke:none;" d="M2.55 0.0498 C1.05 0.1494 0 0.5498 0.1 2.5996 C0.2 4.6494 1.35 4.9492 2.85 4.8496 C4.05 4.75 7.95 3.3994 7.9 2.1494 C7.8 0.8496 3.8 0 2.55 0.0498 " transform="translate(264.85, 72.4004)"/>
    <path style="fill:#e6e6e6; fill-rule:nonzero;stroke:none;" d="M2.4 0.0498 C1 0.1494 0 0.5498 0.1 2.4502 C0.2 4.3994 1.25 4.6494 2.65 4.5498 C3.8 4.5 7.45 3.2002 7.4 2 C7.35 0.7998 3.55 0 2.4 0.0498 " transform="translate(264.95, 72.4502)"/>
    <path style="fill:#ebebeb; fill-rule:nonzero;stroke:none;" d="M2.25 0.0498 C0.95 0.1504 0 0.5 0.1 2.2998 C0.2 4.1504 1.15 4.3496 2.45 4.2998 C3.55 4.2002 6.95 3 6.9 1.9004 C6.85 0.75 3.3 0 2.25 0.0498 " transform="translate(265.05, 72.5)"/>
    <path style="fill:#efefef; fill-rule:nonzero;stroke:none;" d="M2.1 0.0498 C0.85 0.1504 0 0.5 0.1 2.1504 C0.2 3.8506 1.1 4.1006 2.3 4 C3.3 3.9502 6.45 2.8506 6.4 1.75 C6.35 0.7002 3.05 0 2.1 0.0498 " transform="translate(265.15, 72.5498)"/>
    <path style="fill:#f3f3f3; fill-rule:nonzero;stroke:none;" d="M1.9 0.0508 C0.8 0.1504 0 0.4502 0.05 2.0508 C0.15 3.6006 1 3.8008 2.1 3.75 C3.05 3.7002 5.95 2.6504 5.9 1.6504 C5.85 0.6504 2.85 0 1.9 0.0508 " transform="translate(265.25, 72.5996)"/>
    <path style="fill:#f6f6f6; fill-rule:nonzero;stroke:none;" d="M1.75 0.0498 C0.7 0.1494 0 0.3994 0.05 1.8994 C0.15 3.3496 0.9 3.5498 1.95 3.4492 C2.8 3.3994 5.45 2.4492 5.4 1.5498 C5.35 0.5996 2.6 0 1.75 0.0498 " transform="translate(265.35, 72.6504)"/>
    <path style="fill:#f9f9f9; fill-rule:nonzero;stroke:none;" d="M1.6 0.0498 C0.65 0.0996 0 0.3994 0.05 1.75 C0.15 3.0996 0.8 3.25 1.75 3.2002 C2.55 3.1494 4.95 2.25 4.95 1.3994 C4.9 0.5498 2.35 0 1.6 0.0498 " transform="translate(265.45, 72.7002)"/>
    <path style="fill:#fbfbfb; fill-rule:nonzero;stroke:none;" d="M1.45 0.0498 C0.6 0.0996 0 0.3496 0.05 1.5996 C0.1 2.7998 0.75 3 1.6 2.9004 C2.25 2.9004 4.5 2.0498 4.45 1.2998 C4.4 0.5 2.1 0 1.45 0.0498 " transform="translate(265.55, 72.75)"/>
    <path style="fill:#fdfdfd; fill-rule:nonzero;stroke:none;" d="M1.25 0.0498 C0.5 0.1006 0 0.2998 0.05 1.4502 C0.1 2.5498 0.65 2.7002 1.4 2.6504 C2 2.6006 4 1.8506 3.95 1.1504 C3.9 0.5 1.9 0 1.25 0.0498 " transform="translate(265.65, 72.7998)"/>
    <path style="fill:#fefefe; fill-rule:nonzero;stroke:none;" d="M1.1 0.0508 C0.45 0.1006 0 0.3008 0.05 1.3008 C0.1 2.3008 0.55 2.4004 1.25 2.4004 C1.75 2.3506 3.5 1.7002 3.45 1.0508 C3.4 0.4502 1.65 0 1.1 0.0508 " transform="translate(265.75, 72.8496)"/>
    <path style="fill:#ffffff; fill-rule:nonzero;stroke:none;" d="M0.95 0.0498 C0.4 0.0996 0 0.25 0 1.1494 C0.05 2.0498 0.5 2.1494 1.05 2.0996 C1.5 2.0498 3 1.5 2.95 0.9492 C2.95 0.3994 1.4 0 0.95 0.0498 " transform="translate(265.85, 72.9004)"/>
    <path style="fill:#ffffff; fill-rule:nonzero;stroke:none;" d="M0.8 0.0498 C0.3 0.0996 0 0.25 0 1 C0.05 1.75 0.4 1.8496 0.85 1.8496 C1.25 1.7998 2.5 1.2998 2.45 0.7998 C2.45 0.3496 1.15 0 0.8 0.0498 " transform="translate(265.95, 72.9502)"/>
   </g>
   <path style="fill:none;stroke:#000000; stroke-width:1; stroke-linecap:butt; stroke-linejoin:miter; stroke-dasharray:none;" d="M5.95 0.1504 C2.5 0.3506 0 1.25 0.3 5.75 C0.55 10.25 3.1 10.8506 6.55 10.6504 C9.4 10.4502 18.4 7.5 18.25 4.7002 C18.1 1.8506 8.8 0 5.95 0.1504 " transform="translate(262.75, 71.2998)"/>
   <path style="fill:none;stroke:#000000; stroke-width:1; stroke-linecap:butt; stroke-linejoin:miter; stroke-dasharray:none;" d="M5.95 0.1504 C2.5 0.3506 0 1.25 0.3 5.75 C0.55 10.25 3.1 10.8506 6.55 10.6504 C9.4 10.4502 18.4 7.5 18.25 4.7002 C18.1 1.8506 8.8 0 5.95 0.1504 " transform="translate(262.75, 71.2998)"/>
   <path style="fill:#ffffff; fill-rule:nonzero;stroke:#000000; stroke-width:1; stroke-linecap:butt; stroke-linejoin:miter; stroke-dasharray:none;" d="M12.45 10.6504 C15.9 10.4502 18.4 9.5508 18.1 5.0508 C17.85 0.5508 15.3 0 11.85 0.2002 C9 0.3506 0 3.3008 0.15 6.1504 C0.3 8.9502 9.6 10.8008 12.45 10.6504 " transform="translate(280.85, 69.8496)"/>
   <path style="fill:none;stroke:#000000; stroke-width:1; stroke-linecap:butt; stroke-linejoin:miter; stroke-dasharray:none;" d="M0 6.5 C1.90039 1.5996 5.0498 0 7.7998 2.5498 C11.7998 6.25 14.1504 17.0996 13 26.8496 C11.8496 36.5498 7.6504 41.4502 3.5996 37.75 " transform="translate(7.25, 56.4502)"/>
   <path style="fill:#000000; fill-rule:nonzero;stroke:none;" d="M0.15039 8.3496 L4 1 C4 1 2.65039 1.7002 1.75 1.4502 C0.84961 1.25 0 0 0 0 L0.15039 8.3496 " transform="translate(5.5, 61.5)"/>
   <path style="fill:none;stroke:#000000; stroke-width:1; stroke-linecap:butt; stroke-linejoin:miter; stroke-dasharray:none;" d="M11.1496 38.3496 C8.4996 41 5.2496 39.5 3.1996 34.5996 C0.1494 27.4492 0 15.5498 2.8496 7.9492 C5.6996 0.3496 10.4996 0 13.4996 7.0996 " transform="translate(99.6504, 54.1504)"/>
   <path style="fill:#000000; fill-rule:nonzero;stroke:none;" d="M4.1 8.2998 L3.95 0 C3.95 0 3.1 1.2998 2.25 1.5498 C1.4 1.7998 0 1.1494 0 1.1494 L4.1 8.2998 " transform="translate(110.9, 59.7002)"/>
   <path style="fill:none;stroke:#000000; stroke-width:0.8; stroke-linecap:butt; stroke-linejoin:miter; stroke-dasharray:none;" d="M50.3 0 L0 0 " transform="translate(132, 75)"/>
   <path style="fill:#000000; fill-rule:nonzero;stroke:none;" d="M10 2.5996 L0 0 C0 0 1.25 1.4492 1.25 2.5996 C1.25 3.6992 0 5.1494 0 5.1494 L10 2.5996 " transform="translate(181, 72.4004)"/>
   <path style="fill:#000000; fill-rule:evenodd;stroke:none;" d="M1.056 6.6367 C1.056 7.5 0.912 7.6562 0 7.7168 L0 7.9443 L3.408 7.9443 C4.8 7.9443 6.06 7.5478 6.804 6.8759 C7.584 6.1679 8.028 5.1005 8.028 3.9365 C8.028 2.8564 7.668 1.9199 7.008 1.2607 C6.192 0.4326 4.884 0 3.24 0 L0 0 L0 0.2285 C0.948 0.3125 1.056 0.4199 1.056 1.3086 L1.056 6.6367 Z M2.28 0.9121 C2.28 0.54 2.412 0.4443 2.904 0.4443 C3.936 0.4443 4.716 0.6367 5.292 1.0439 C6.228 1.6923 6.72 2.7246 6.72 4.0205 C6.72 5.4365 6.228 6.4443 5.256 7.0088 C4.644 7.3564 3.948 7.5 2.904 7.5 C2.424 7.5 2.28 7.3925 2.28 7.0088 L2.28 0.9121 Z" transform="translate(133.192, 52.0557)"/>
   <path style="fill:#000000; fill-rule:evenodd;stroke:none;" d="M1.908 2.6768 L0.048 3.3359 L0.048 3.5166 L0.144 3.5039 C0.288 3.4805 0.444 3.4688 0.552 3.4688 C0.84 3.4688 0.948 3.6602 0.948 4.1885 L0.948 6.9727 C0.948 7.8359 0.828 7.9688 0 8.0166 L0 8.1963 L2.844 8.1963 L2.844 8.0166 C2.052 7.9561 1.956 7.8359 1.956 6.9727 L1.956 2.7119 L1.908 2.6768 Z M1.344 0 C1.02 0 0.744 0.2764 0.744 0.6123 C0.744 0.9483 1.008 1.2246 1.344 1.2246 C1.692 1.2246 1.968 0.96 1.968 0.6123 C1.968 0.2764 1.692 0 1.344 0 Z" transform="translate(141.942, 51.8037)"/>
   <path style="fill:#000000; fill-rule:evenodd;stroke:none;" d="M3.168 1.7402 L3.12 0.1074 L2.988 0.1074 L2.964 0.1318 C2.856 0.2158 2.844 0.2275 2.796 0.2275 C2.724 0.2275 2.604 0.2041 2.472 0.1435 C2.208 0.0478 1.944 0 1.632 0 C0.684 0 0 0.6123 0 1.4756 C0 2.1474 0.384 2.6279 1.404 3.2041 L2.1 3.5996 C2.52 3.8398 2.724 4.1279 2.724 4.5 C2.724 5.0273 2.34 5.3642 1.728 5.3642 C1.32 5.3642 0.948 5.208 0.72 4.9433 C0.468 4.6435 0.36 4.3682 0.204 3.6836 L0.012 3.6836 L0.012 5.5557 L0.168 5.5557 C0.252 5.4355 0.3 5.4121 0.444 5.4121 C0.552 5.4121 0.72 5.4355 0.996 5.5078 C1.332 5.5801 1.656 5.6279 1.872 5.6279 C2.796 5.6279 3.564 4.9316 3.564 4.0918 C3.564 3.4922 3.276 3.0957 2.556 2.664 L1.26 1.8955 C0.924 1.7041 0.744 1.4043 0.744 1.0801 C0.744 0.5996 1.116 0.2637 1.668 0.2637 C2.352 0.2637 2.712 0.6719 2.988 1.7402 L3.168 1.7402 Z" transform="translate(145.612, 54.4922)"/>
   <path style="fill:#000000; fill-rule:evenodd;stroke:none;" d="M0.024 0.8398 C0.192 0.8037 0.3 0.792 0.444 0.792 C0.744 0.792 0.852 0.9834 0.852 1.5117 L0.852 4.5117 C0.852 5.1113 0.768 5.1953 0 5.3398 L0 5.5195 L2.88 5.5195 L2.88 5.3398 C2.064 5.3037 1.86 5.123 1.86 4.4394 L1.86 1.7392 C1.86 1.3554 2.376 0.7558 2.7 0.7558 C2.772 0.7558 2.88 0.8154 3.012 0.9355 C3.204 1.1035 3.336 1.1757 3.492 1.1757 C3.78 1.1757 3.96 0.9716 3.96 0.6357 C3.96 0.2392 3.708 0 3.3 0 C2.796 0 2.448 0.2754 1.86 1.1279 L1.86 0.0234 L1.8 0 C1.164 0.2636 0.732 0.4199 0.024 0.6474 L0.024 0.8398 Z" transform="translate(149.81, 54.4805)"/>
   <path style="fill:#000000; fill-rule:evenodd;stroke:none;" d="M2.652 0 C1.092 0 0 1.1513 0 2.8076 C0 4.4277 1.116 5.6396 2.628 5.6396 C4.14 5.6396 5.292 4.3672 5.292 2.7119 C5.292 1.1396 4.188 0 2.652 0 Z M2.496 0.3359 C3.504 0.3359 4.212 1.4873 4.212 3.1318 C4.212 4.4873 3.672 5.3037 2.772 5.3037 C2.304 5.3037 1.86 5.0156 1.608 4.5351 C1.272 3.9111 1.08 3.0713 1.08 2.2197 C1.08 1.0791 1.644 0.3359 2.496 0.3359 Z" transform="translate(154.098, 54.4805)"/>
   <path style="fill:#000000; fill-rule:evenodd;stroke:none;" d="M2.904 1.5478 L1.692 1.5478 L1.692 0.1562 C1.692 0.0361 1.68 0 1.608 0 C1.524 0.1084 1.452 0.2158 1.368 0.3359 C0.912 0.9961 0.396 1.5722 0.204 1.6201 C0.072 1.7041 0 1.788 0 1.8486 C0 1.8837 0.012 1.9082 0.048 1.9326 L0.684 1.9326 L0.684 5.5439 C0.684 6.5517 1.044 7.0683 1.752 7.0683 C2.34 7.0683 2.796 6.7802 3.192 6.1562 L3.036 6.0244 C2.784 6.3242 2.58 6.4443 2.316 6.4443 C1.872 6.4443 1.692 6.1201 1.692 5.3642 L1.692 1.9326 L2.904 1.9326 L2.904 1.5478 Z" transform="translate(159.906, 53.0518)"/>
   <path style="fill:#000000; fill-rule:evenodd;stroke:none;" d="M4.86 4.7275 C4.656 4.8955 4.512 4.955 4.332 4.955 C4.056 4.955 3.972 4.7871 3.972 4.2597 L3.972 1.9199 C3.972 1.2959 3.912 0.9472 3.732 0.6591 C3.468 0.2275 2.952 0 2.244 0 C1.116 0 0.228 0.5879 0.228 1.3437 C0.228 1.6191 0.468 1.8593 0.744 1.8593 C1.032 1.8593 1.284 1.6191 1.284 1.3554 C1.284 1.3076 1.272 1.247 1.26 1.1631 C1.236 1.0556 1.224 0.9599 1.224 0.8759 C1.224 0.5517 1.608 0.2871 2.088 0.2871 C2.676 0.2871 3 0.6357 3 1.2832 L3 2.0156 C1.152 2.7597 0.948 2.8554 0.432 3.3115 C0.168 3.5517 0 3.9599 0 4.3554 C0 5.1113 0.528 5.6396 1.26 5.6396 C1.788 5.6396 2.28 5.3877 3.012 4.7636 C3.072 5.3877 3.288 5.6396 3.78 5.6396 C4.188 5.6396 4.44 5.4951 4.86 5.039 L4.86 4.7275 Z M3 4.0439 C3 4.416 2.94 4.5234 2.688 4.6679 C2.4 4.8359 2.064 4.9433 1.812 4.9433 C1.392 4.9433 1.056 4.5351 1.056 4.0195 L1.056 3.9716 C1.056 3.2636 1.548 2.831 3 2.3037 L3 4.0439 Z" transform="translate(163.444, 54.4805)"/>
   <path style="fill:#000000; fill-rule:evenodd;stroke:none;" d="M2.904 1.5478 L1.692 1.5478 L1.692 0.1562 C1.692 0.0361 1.68 0 1.608 0 C1.524 0.1084 1.452 0.2158 1.368 0.3359 C0.912 0.9961 0.396 1.5722 0.204 1.6201 C0.072 1.7041 0 1.788 0 1.8486 C0 1.8837 0.012 1.9082 0.048 1.9326 L0.684 1.9326 L0.684 5.5439 C0.684 6.5517 1.044 7.0683 1.752 7.0683 C2.34 7.0683 2.796 6.7802 3.192 6.1562 L3.036 6.0244 C2.784 6.3242 2.58 6.4443 2.316 6.4443 C1.872 6.4443 1.692 6.1201 1.692 5.3642 L1.692 1.9326 L2.904 1.9326 L2.904 1.5478 Z" transform="translate(168.406, 53.0518)"/>
   <path style="fill:#000000; fill-rule:evenodd;stroke:none;" d="M1.908 2.6768 L0.048 3.3359 L0.048 3.5166 L0.144 3.5039 C0.288 3.4805 0.444 3.4688 0.552 3.4688 C0.84 3.4688 0.948 3.6602 0.948 4.1885 L0.948 6.9727 C0.948 7.8359 0.828 7.9688 0 8.0166 L0 8.1963 L2.844 8.1963 L2.844 8.0166 C2.052 7.9561 1.956 7.8359 1.956 6.9727 L1.956 2.7119 L1.908 2.6768 Z M1.344 0 C1.02 0 0.744 0.2764 0.744 0.6123 C0.744 0.9483 1.008 1.2246 1.344 1.2246 C1.692 1.2246 1.968 0.96 1.968 0.6123 C1.968 0.2764 1.692 0 1.344 0 Z" transform="translate(171.942, 51.8037)"/>
   <path style="fill:#000000; fill-rule:evenodd;stroke:none;" d="M2.652 0 C1.092 0 0 1.1513 0 2.8076 C0 4.4277 1.116 5.6396 2.628 5.6396 C4.14 5.6396 5.292 4.3672 5.292 2.7119 C5.292 1.1396 4.188 0 2.652 0 Z M2.496 0.3359 C3.504 0.3359 4.212 1.4873 4.212 3.1318 C4.212 4.4873 3.672 5.3037 2.772 5.3037 C2.304 5.3037 1.86 5.0156 1.608 4.5351 C1.272 3.9111 1.08 3.0713 1.08 2.2197 C1.08 1.0791 1.644 0.3359 2.496 0.3359 Z" transform="translate(175.348, 54.4805)"/>
   <path style="fill:#000000; fill-rule:evenodd;stroke:none;" d="M0 0.7431 C0.072 0.708 0.192 0.6953 0.324 0.6953 C0.66 0.6953 0.768 0.8759 0.768 1.4638 L0.768 4.4394 C0.768 5.123 0.636 5.292 0.024 5.3398 L0.024 5.5195 L2.568 5.5195 L2.568 5.3398 C1.956 5.292 1.776 5.1474 1.776 4.7158 L1.776 1.3437 C2.352 0.8037 2.616 0.6591 3.012 0.6591 C3.6 0.6591 3.888 1.0312 3.888 1.8232 L3.888 4.331 C3.888 5.0879 3.732 5.292 3.132 5.3398 L3.132 5.5195 L5.628 5.5195 L5.628 5.3398 C5.04 5.2793 4.896 5.1357 4.896 4.5478 L4.896 1.7998 C4.896 0.6718 4.368 0 3.48 0 C2.928 0 2.556 0.2031 1.74 0.9716 L1.74 0.0234 L1.656 0 C1.068 0.2158 0.66 0.3476 0 0.539 L0 0.7431 Z" transform="translate(181.192, 54.4805)"/>
   <path style="fill:#000000; fill-rule:evenodd;stroke:none;" d="M7.4287 5.388 L7.0801 5.388 C6.6846 6.324 6.4444 6.696 6.0245 7.08 C5.5323 7.524 4.8604 7.74 3.9366 7.74 C3.2041 7.74 2.9766 7.584 2.9766 7.068 L2.9766 1.404 C2.9766 0.504 3.1446 0.348 4.1885 0.3 L4.1885 0 L0 0 L0 0.3 C0.8164 0.348 1.0323 0.54 1.0323 1.152 L1.0323 6.96 C1.0323 7.572 0.876 7.704 0 7.812 L0 8.112 L6.9366 8.112 L7.4287 5.388 Z" transform="translate(15.2275, 121.888)"/>
   <path style="fill:#000000; fill-rule:evenodd;stroke:none;" d="M7.2832 1.32 C7.2832 0.612 7.4512 0.42 8.2197 0.3 L8.2197 0 L5.5801 0 L5.5801 0.3 C6.5156 0.372 6.7558 0.612 6.7558 1.488 L6.7558 5.148 C6.7558 6.924 6.084 7.752 4.6553 7.752 C3.4316 7.752 2.8916 7.044 2.8916 5.412 L2.8916 1.404 C2.8916 0.924 2.9638 0.66 3.1435 0.492 C3.2881 0.372 3.4795 0.324 4.0556 0.3 L4.0556 0 L0 0 L0 0.3 C0.8398 0.384 0.9834 0.54 0.9834 1.404 L0.9834 5.412 C0.9834 6.588 1.2353 7.176 1.9678 7.704 C2.5439 8.124 3.3115 8.34 4.1875 8.34 C5.0752 8.34 5.916 8.076 6.4316 7.632 C6.9717 7.176 7.2832 6.264 7.2832 5.148 L7.2832 1.32 Z" transform="translate(23.1924, 121.888)"/>
   <path style="fill:#000000; fill-rule:evenodd;stroke:none;" d="M7.9677 0.804 L7.9677 6.912 C7.9677 7.584 7.7998 7.728 6.9004 7.812 L6.9004 8.112 L10.8838 8.112 L10.8838 7.812 C9.9482 7.692 9.8281 7.56 9.8281 6.708 L9.8281 1.404 C9.8281 0.54 10.0078 0.36 10.8838 0.3 L10.8838 0 L7.8603 0 L5.4599 5.664 L3.0595 0 L0.0244 0 L0.0244 0.3 C0.9004 0.372 1.0918 0.528 1.0918 1.152 L1.0918 6.852 C1.0918 7.572 0.9355 7.716 0 7.812 L0 8.112 L2.8076 8.112 L2.8076 7.812 C1.8242 7.74 1.5957 7.512 1.5957 6.624 L1.5957 0.984 L4.6201 8.112 L4.9443 8.112 L7.9677 0.804 Z" transform="translate(31.918, 121.888)"/>
   <path style="fill:#000000; fill-rule:evenodd;stroke:none;" d="M4.2959 0 C1.7881 0 0 1.776 0 4.272 C0 6.756 1.7637 8.52 4.2481 8.52 C6.7324 8.52 8.4961 6.744 8.4961 4.26 C8.4961 1.812 6.708 0 4.2959 0 Z M4.2842 0.396 C5.6045 0.396 6.3721 1.848 6.3721 4.344 C6.3721 6.804 5.628 8.124 4.2481 8.124 C2.8682 8.124 2.124 6.804 2.124 4.38 C2.124 1.788 2.8799 0.396 4.2842 0.396 Z" transform="translate(43.4199, 121.708)"/>
   <path style="fill:#000000; fill-rule:evenodd;stroke:none;" d="M0.0351 0.744 C0.1914 0.708 0.2881 0.696 0.4199 0.696 C0.7314 0.696 0.8398 0.888 0.8398 1.464 L0.8398 4.5 C0.8398 5.148 0.6719 5.328 0 5.34 L0 5.52 L2.664 5.52 L2.664 5.34 C2.0273 5.316 1.8476 5.184 1.8476 4.716 L1.8476 1.332 C1.8476 1.308 1.9433 1.188 2.0273 1.104 C2.3271 0.828 2.8437 0.624 3.2637 0.624 C3.792 0.624 4.0556 1.044 4.0556 1.884 L4.0556 4.488 C4.0556 5.16 3.9238 5.292 3.2392 5.34 L3.2392 5.52 L5.9277 5.52 L5.9277 5.34 C5.2431 5.328 5.0635 5.124 5.0635 4.38 L5.0635 1.356 C5.4238 0.84 5.8193 0.624 6.3721 0.624 C7.0556 0.624 7.2715 0.948 7.2715 1.944 L7.2715 4.476 C7.2715 5.16 7.1758 5.256 6.4795 5.34 L6.4795 5.52 L9.1074 5.52 L9.1074 5.34 L8.7959 5.316 C8.4355 5.292 8.2793 5.076 8.2793 4.608 L8.2793 2.136 C8.2793 0.72 7.8115 0 6.8877 0 C6.1914 0 5.5801 0.312 4.9316 1.008 C4.7158 0.324 4.3076 0 3.6592 0 C3.1318 0 2.7959 0.168 1.7998 0.924 L1.7998 0.024 L1.7158 0 C1.1035 0.228 0.6953 0.36 0.0351 0.54 L0.0351 0.744 Z" transform="translate(55.4424, 124.48)"/>
   <path style="fill:#000000; fill-rule:evenodd;stroke:none;" d="M2.6523 0 C1.0927 0 0 1.152 0 2.808 C0 4.428 1.1162 5.64 2.6279 5.64 C4.1406 5.64 5.2919 4.368 5.2919 2.712 C5.2919 1.14 4.1884 0 2.6523 0 Z M2.4961 0.336 C3.5039 0.336 4.2119 1.488 4.2119 3.132 C4.2119 4.488 3.6718 5.304 2.7724 5.304 C2.3046 5.304 1.8603 5.016 1.6084 4.536 C1.2724 3.912 1.08 3.072 1.08 2.22 C1.08 1.08 1.6445 0.336 2.4961 0.336 Z" transform="translate(65.0977, 124.48)"/>
   <path style="fill:#000000; fill-rule:evenodd;stroke:none;" d="M0 0.72 L0.0723 0.72 C0.2041 0.708 0.3487 0.696 0.4444 0.696 C0.8282 0.696 0.9483 0.864 0.9483 1.428 L0.9483 7.152 C0.9483 7.8 0.7803 7.956 0.0245 8.016 L0.0245 8.196 L2.8565 8.196 L2.8565 8.016 C2.1006 7.968 1.9561 7.848 1.9561 7.188 L1.9561 0.024 L1.9082 0 C1.2842 0.204 0.8282 0.324 0 0.528 L0 0.72 Z" transform="translate(70.9775, 121.804)"/>
   <path style="fill:#000000; fill-rule:evenodd;stroke:none;" d="M4.5967 3.552 C4.0205 4.464 3.5039 4.812 2.7363 4.812 C2.0518 4.812 1.5361 4.464 1.1885 3.78 C0.9727 3.324 0.8887 2.928 0.8643 2.196 L4.5606 2.196 C4.4639 1.416 4.3438 1.068 4.044 0.684 C3.6846 0.252 3.1318 0 2.5078 0 C1.9082 0 1.3438 0.216 0.8887 0.624 C0.3242 1.116 0 1.968 0 2.952 C0 4.608 0.8643 5.64 2.2441 5.64 C3.3838 5.64 4.2842 4.932 4.7881 3.636 L4.5967 3.552 Z M0.8887 1.812 C1.0205 0.876 1.4277 0.432 2.1602 0.432 C2.8926 0.432 3.1807 0.768 3.3359 1.812 L0.8887 1.812 Z" transform="translate(74.2998, 124.48)"/>
   <path style="fill:#000000; fill-rule:evenodd;stroke:none;" d="M4.4766 3.648 C3.9004 4.488 3.4678 4.776 2.7842 4.776 C1.6924 4.776 0.9238 3.816 0.9238 2.436 C0.9238 1.2 1.584 0.348 2.5566 0.348 C2.9883 0.348 3.1445 0.48 3.2647 0.924 L3.3359 1.188 C3.4326 1.524 3.6484 1.74 3.9004 1.74 C4.2119 1.74 4.4766 1.512 4.4766 1.236 C4.4766 0.564 3.6357 0 2.6279 0 C2.04 0 1.4277 0.24 0.9365 0.672 C0.3359 1.2 0 2.016 0 2.964 C0 4.524 0.9482 5.64 2.2803 5.64 C2.8203 5.64 3.2998 5.448 3.7324 5.076 C4.0566 4.788 4.2842 4.464 4.6445 3.756 L4.4766 3.648 Z" transform="translate(79.5498, 124.48)"/>
   <path style="fill:#000000; fill-rule:evenodd;stroke:none;" d="M5.6396 4.8 L5.5801 4.8 C5.0273 4.8 4.8955 4.668 4.8955 4.116 L4.8955 0 L3 0 L3 0.204 C3.7432 0.24 3.8877 0.36 3.8877 0.96 L3.8877 3.78 C3.8877 4.116 3.8271 4.284 3.6592 4.416 C3.3359 4.68 2.9639 4.824 2.6035 4.824 C2.1357 4.824 1.752 4.416 1.752 3.912 L1.752 0 L0 0 L0 0.168 C0.5752 0.204 0.7432 0.384 0.7432 0.936 L0.7432 3.96 C0.7432 4.908 1.3193 5.52 2.1953 5.52 C2.6396 5.52 3.1074 5.328 3.4316 5.004 L3.9473 4.488 L3.9473 5.484 L3.9951 5.508 C4.5957 5.268 5.0273 5.136 5.6396 4.968 L5.6396 4.8 Z" transform="translate(84.8584, 124.6)"/>
   <path style="fill:#000000; fill-rule:evenodd;stroke:none;" d="M0 0.72 L0.0723 0.72 C0.2041 0.708 0.3487 0.696 0.4444 0.696 C0.8282 0.696 0.9483 0.864 0.9483 1.428 L0.9483 7.152 C0.9483 7.8 0.7803 7.956 0.0245 8.016 L0.0245 8.196 L2.8565 8.196 L2.8565 8.016 C2.1006 7.968 1.9561 7.848 1.9561 7.188 L1.9561 0.024 L1.9082 0 C1.2842 0.204 0.8282 0.324 0 0.528 L0 0.72 Z" transform="translate(90.9775, 121.804)"/>
   <path style="fill:#000000; fill-rule:evenodd;stroke:none;" d="M4.8594 4.728 C4.6553 4.896 4.5118 4.956 4.3321 4.956 C4.0557 4.956 3.9717 4.788 3.9717 4.26 L3.9717 1.92 C3.9717 1.296 3.9121 0.948 3.7315 0.66 C3.4678 0.228 2.9522 0 2.2442 0 C1.1153 0 0.2276 0.588 0.2276 1.344 C0.2276 1.62 0.4678 1.86 0.7442 1.86 C1.0313 1.86 1.2832 1.62 1.2832 1.356 C1.2832 1.308 1.2715 1.248 1.2598 1.164 C1.2354 1.056 1.2237 0.96 1.2237 0.876 C1.2237 0.552 1.6075 0.288 2.0879 0.288 C2.6758 0.288 3 0.636 3 1.284 L3 2.016 C1.1514 2.76 0.9473 2.856 0.4317 3.312 C0.168 3.552 0 3.96 0 4.356 C0 5.112 0.5274 5.64 1.2598 5.64 C1.7881 5.64 2.2793 5.388 3.0118 4.764 C3.0713 5.388 3.2881 5.64 3.7793 5.64 C4.1875 5.64 4.4395 5.496 4.8594 5.04 L4.8594 4.728 Z M3 4.044 C3 4.416 2.9395 4.524 2.6875 4.668 C2.3995 4.836 2.0635 4.944 1.8116 4.944 C1.3916 4.944 1.0557 4.536 1.0557 4.02 L1.0557 3.972 C1.0557 3.264 1.5479 2.832 3 2.304 L3 4.044 Z" transform="translate(94.4443, 124.48)"/>
   <path style="fill:#000000; fill-rule:evenodd;stroke:none;" d="M0.0244 0.84 C0.1924 0.804 0.3008 0.792 0.4443 0.792 C0.7444 0.792 0.8524 0.984 0.8524 1.512 L0.8524 4.512 C0.8524 5.112 0.7684 5.196 0 5.34 L0 5.52 L2.8804 5.52 L2.8804 5.34 C2.0644 5.304 1.8604 5.124 1.8604 4.44 L1.8604 1.74 C1.8604 1.356 2.3764 0.756 2.7004 0.756 C2.7724 0.756 2.8804 0.816 3.0124 0.936 C3.2044 1.104 3.3364 1.176 3.4924 1.176 C3.7804 1.176 3.9604 0.972 3.9604 0.636 C3.9604 0.24 3.7084 0 3.3004 0 C2.7964 0 2.4484 0.276 1.8604 1.128 L1.8604 0.024 L1.8004 0 C1.1644 0.264 0.7324 0.42 0.0244 0.648 L0.0244 0.84 Z" transform="translate(99.3096, 124.48)"/>
   <path style="fill:#000000; fill-rule:evenodd;stroke:none;" d="M2.652 0 C1.092 0 0 1.152 0 2.808 C0 4.428 1.116 5.64 2.628 5.64 C4.14 5.64 5.292 4.368 5.292 2.712 C5.292 1.14 4.188 0 2.652 0 Z M2.496 0.336 C3.504 0.336 4.212 1.488 4.212 3.132 C4.212 4.488 3.672 5.304 2.772 5.304 C2.304 5.304 1.86 5.016 1.608 4.536 C1.272 3.912 1.08 3.072 1.08 2.22 C1.08 1.08 1.644 0.336 2.496 0.336 Z" transform="translate(106.598, 124.48)"/>
   <path style="fill:#000000; fill-rule:evenodd;stroke:none;" d="M0.024 0.84 C0.192 0.804 0.3 0.792 0.444 0.792 C0.744 0.792 0.852 0.984 0.852 1.512 L0.852 4.512 C0.852 5.112 0.768 5.196 0 5.34 L0 5.52 L2.88 5.52 L2.88 5.34 C2.064 5.304 1.86 5.124 1.86 4.44 L1.86 1.74 C1.86 1.356 2.376 0.756 2.7 0.756 C2.772 0.756 2.88 0.816 3.012 0.936 C3.204 1.104 3.336 1.176 3.492 1.176 C3.78 1.176 3.96 0.972 3.96 0.636 C3.96 0.24 3.708 0 3.3 0 C2.796 0 2.448 0.276 1.86 1.128 L1.86 0.024 L1.8 0 C1.164 0.264 0.732 0.42 0.024 0.648 L0.024 0.84 Z" transform="translate(112.31, 124.48)"/>
   <path style="fill:#000000; fill-rule:evenodd;stroke:none;" d="M1.8 0.024 L1.74 0 C1.236 0.18 0.912 0.276 0.348 0.432 L0 0.528 L0 0.72 C0.072 0.708 0.12 0.708 0.204 0.708 C0.684 0.708 0.792 0.816 0.792 1.32 L0.792 7.548 C0.792 7.92 1.812 8.316 2.772 8.316 C4.356 8.316 5.58 6.996 5.58 5.28 C5.58 3.804 4.668 2.676 3.468 2.676 C2.736 2.676 2.04 3.108 1.8 3.696 L1.8 0.024 Z M1.8 4.332 C1.8 3.864 2.364 3.432 2.988 3.432 C3.924 3.432 4.524 4.368 4.524 5.832 C4.524 7.164 3.948 7.932 2.964 7.932 C2.34 7.932 1.8 7.656 1.8 7.356 L1.8 4.332 Z" transform="translate(116.286, 121.804)"/>
   <path style="fill:#000000; fill-rule:evenodd;stroke:none;" d="M1.908 2.676 L0.048 3.336 L0.048 3.516 L0.144 3.504 C0.288 3.48 0.444 3.468 0.552 3.468 C0.84 3.468 0.948 3.66 0.948 4.188 L0.948 6.972 C0.948 7.836 0.828 7.968 0 8.016 L0 8.196 L2.844 8.196 L2.844 8.016 C2.052 7.956 1.956 7.836 1.956 6.972 L1.956 2.712 L1.908 2.676 Z M1.344 0 C1.02 0 0.744 0.276 0.744 0.612 C0.744 0.948 1.008 1.224 1.344 1.224 C1.692 1.224 1.968 0.96 1.968 0.612 C1.968 0.276 1.692 0 1.344 0 Z" transform="translate(122.442, 121.804)"/>
   <path style="fill:#000000; fill-rule:evenodd;stroke:none;" d="M2.904 1.548 L1.692 1.548 L1.692 0.156 C1.692 0.036 1.68 0 1.608 0 C1.524 0.108 1.452 0.216 1.368 0.336 C0.912 0.996 0.396 1.572 0.204 1.62 C0.072 1.704 0 1.788 0 1.848 C0 1.884 0.012 1.908 0.048 1.932 L0.684 1.932 L0.684 5.544 C0.684 6.552 1.044 7.068 1.752 7.068 C2.34 7.068 2.796 6.78 3.192 6.156 L3.036 6.024 C2.784 6.324 2.58 6.444 2.316 6.444 C1.872 6.444 1.692 6.12 1.692 5.364 L1.692 1.932 L2.904 1.932 L2.904 1.548 Z" transform="translate(125.906, 123.052)"/>
   <path style="fill:#000000; fill-rule:evenodd;stroke:none;" d="M4.86 4.728 C4.656 4.896 4.512 4.956 4.332 4.956 C4.056 4.956 3.972 4.788 3.972 4.26 L3.972 1.92 C3.972 1.296 3.912 0.948 3.732 0.66 C3.468 0.228 2.952 0 2.244 0 C1.116 0 0.228 0.588 0.228 1.344 C0.228 1.62 0.468 1.86 0.744 1.86 C1.032 1.86 1.284 1.62 1.284 1.356 C1.284 1.308 1.272 1.248 1.26 1.164 C1.236 1.056 1.224 0.96 1.224 0.876 C1.224 0.552 1.608 0.288 2.088 0.288 C2.676 0.288 3 0.636 3 1.284 L3 2.016 C1.152 2.76 0.948 2.856 0.432 3.312 C0.168 3.552 0 3.96 0 4.356 C0 5.112 0.528 5.64 1.26 5.64 C1.788 5.64 2.28 5.388 3.012 4.764 C3.072 5.388 3.288 5.64 3.78 5.64 C4.188 5.64 4.44 5.496 4.86 5.04 L4.86 4.728 Z M3 4.044 C3 4.416 2.94 4.524 2.688 4.668 C2.4 4.836 2.064 4.944 1.812 4.944 C1.392 4.944 1.056 4.536 1.056 4.02 L1.056 3.972 C1.056 3.264 1.548 2.832 3 2.304 L3 4.044 Z" transform="translate(129.444, 124.48)"/>
   <path style="fill:#000000; fill-rule:evenodd;stroke:none;" d="M0 0.72 L0.072 0.72 C0.204 0.708 0.348 0.696 0.444 0.696 C0.828 0.696 0.948 0.864 0.948 1.428 L0.948 7.152 C0.948 7.8 0.78 7.956 0.024 8.016 L0.024 8.196 L2.856 8.196 L2.856 8.016 C2.1 7.968 1.956 7.848 1.956 7.188 L1.956 0.024 L1.908 0 C1.284 0.204 0.828 0.324 0 0.528 L0 0.72 Z" transform="translate(134.478, 121.804)"/>
   <path style="fill:none;stroke:#0000ff; stroke-width:0.8; stroke-linecap:butt; stroke-linejoin:miter; stroke-dasharray:none;" d="M0 52.2998 L0 0 " transform="translate(64, 9)"/>
   <path style="fill:#0000ff; fill-rule:nonzero;stroke:none;" d="M2.5996 10 L5.1494 0 C5.1494 0 3.6992 1.25 2.5996 1.25 C1.4492 1.25 0 0 0 0 L2.5996 10 " transform="translate(61.4004, 60)"/>
   <path style="fill:#0000ff; fill-rule:evenodd;stroke:none;" d="M4.8604 0 L4.6084 0 C4.5606 0.27636 4.4277 0.4082 4.2236 0.4082 C4.1045 0.4082 3.9004 0.36035 3.6963 0.26464 C3.252 0.09668 2.8076 0 2.4238 0 C1.9082 0 1.3799 0.2041 0.9844 0.55273 C0.5645 0.9248 0.3477 1.42871 0.3477 2.05273 C0.3477 3.01269 0.876 3.68457 2.2197 4.39257 C3.084 4.84863 3.708 5.33984 4.0078 5.79589 C4.1162 5.95214 4.1758 6.2041 4.1758 6.4922 C4.1758 7.2959 3.5762 7.8486 2.7002 7.8486 C1.6318 7.8486 0.876 7.1885 0.2764 5.7246 L0 5.7246 L0.3604 8.2685 L0.624 8.2685 C0.6357 8.04 0.7803 7.8721 0.96 7.8721 C1.0918 7.8721 1.2959 7.9199 1.5244 8.0039 C1.9805 8.1846 2.46 8.2803 2.9404 8.2803 C4.3203 8.2803 5.3877 7.332 5.3877 6.09668 C5.3877 5.1123 4.7285 4.33203 3.1445 3.48046 C1.8838 2.78418 1.3799 2.25585 1.3799 1.60839 C1.3799 0.94824 1.8838 0.49218 2.6279 0.49218 C3.168 0.49218 3.6719 0.7207 4.0918 1.15234 C4.4639 1.53613 4.6318 1.84863 4.8242 2.55664 L5.124 2.55664 L4.8604 0 Z" transform="translate(75.5039, 3.8877)"/>
   <path style="fill:#0000ff; fill-rule:evenodd;stroke:none;" d="M5.6396 4.80079 L5.5801 4.80079 C5.0273 4.80079 4.8955 4.66799 4.8955 4.11619 L4.8955 0 L3 0 L3 0.2041 C3.7432 0.24023 3.8877 0.36035 3.8877 0.95996 L3.8877 3.78029 C3.8877 4.11619 3.8271 4.28419 3.6592 4.41599 C3.3359 4.68069 2.9639 4.82419 2.6035 4.82419 C2.1357 4.82419 1.752 4.41599 1.752 3.91209 L1.752 0 L0 0 L0 0.16797 C0.5752 0.2041 0.7432 0.38477 0.7432 0.93652 L0.7432 3.95999 C0.7432 4.90819 1.3193 5.52049 2.1953 5.52049 C2.6396 5.52049 3.1074 5.32809 3.4316 5.00389 L3.9473 4.48829 L3.9473 5.48439 L3.9951 5.50879 C4.5957 5.26859 5.0273 5.13669 5.6396 4.96879 L5.6396 4.80079 Z" transform="translate(81.8584, 6.59961)"/>
   <path style="fill:#0000ff; fill-rule:evenodd;stroke:none;" d="M0.0488 0.80371 C0.1562 0.79199 0.2402 0.79199 0.3486 0.79199 C0.7568 0.79199 0.8408 0.91113 0.8408 1.47558 L0.8408 7.09183 C0.8408 7.71583 0.708 7.84763 0 7.91993 L0 8.12303 L2.9043 8.12303 L2.9043 7.90723 C2.0049 7.89553 1.8486 7.76363 1.8486 7.00783 L1.8486 5.12303 C2.2685 5.51953 2.5566 5.63963 3.0605 5.63963 C4.4765 5.63963 5.58 4.29593 5.58 2.55566 C5.58 1.06738 4.7402 0 3.5761 0 C2.9043 0 2.3759 0.2998 1.8486 0.94726 L1.8486 0.02344 L1.7763 0 C1.1289 0.25195 0.708 0.40723 0.0488 0.61133 L0.0488 0.80371 Z M1.8486 1.51172 C1.8486 1.15137 2.5205 0.71973 3.0722 0.71973 C3.9599 0.71973 4.5488 1.63183 4.5488 3.02344 C4.5488 4.35543 3.9599 5.25583 3.0966 5.25583 C2.5322 5.25583 1.8486 4.82323 1.8486 4.46383 L1.8486 1.51172 Z" transform="translate(87.8096, 6.48047)"/>
   <path style="fill:#0000ff; fill-rule:evenodd;stroke:none;" d="M0.0244 0.83984 C0.1924 0.80371 0.3008 0.79199 0.4443 0.79199 C0.7441 0.79199 0.8525 0.9834 0.8525 1.51172 L0.8525 4.51173 C0.8525 5.11133 0.7685 5.19533 0 5.33983 L0 5.51953 L2.8808 5.51953 L2.8808 5.33983 C2.0644 5.30373 1.8603 5.12303 1.8603 4.43943 L1.8603 1.73926 C1.8603 1.35547 2.3759 0.75586 2.7002 0.75586 C2.7724 0.75586 2.8808 0.81543 3.0127 0.93555 C3.2041 1.10351 3.3369 1.17578 3.4922 1.17578 C3.7802 1.17578 3.9599 0.97168 3.9599 0.63574 C3.9599 0.23926 3.708 0 3.3008 0 C2.7968 0 2.4482 0.27539 1.8603 1.12793 L1.8603 0.02344 L1.8008 0 C1.164 0.26367 0.7324 0.41992 0.0244 0.64746 L0.0244 0.83984 Z" transform="translate(93.8096, 6.48047)"/>
   <path style="fill:#0000ff; fill-rule:evenodd;stroke:none;" d="M4.8597 4.72753 C4.6557 4.89553 4.5117 4.95503 4.3317 4.95503 C4.0557 4.95503 3.9717 4.78713 3.9717 4.25973 L3.9717 1.91992 C3.9717 1.2959 3.9117 0.94726 3.7317 0.65918 C3.4677 0.22754 2.9517 0 2.2437 0 C1.1153 0 0.2276 0.58789 0.2276 1.34375 C0.2276 1.61914 0.4678 1.85937 0.7442 1.85937 C1.0313 1.85937 1.2832 1.61914 1.2832 1.35547 C1.2832 1.30762 1.2715 1.24707 1.2598 1.16308 C1.2354 1.05566 1.2237 0.95996 1.2237 0.87598 C1.2237 0.55176 1.6075 0.28711 2.0877 0.28711 C2.6757 0.28711 2.9997 0.63574 2.9997 1.2832 L2.9997 2.01562 C1.1514 2.75976 0.9473 2.85547 0.4317 3.31152 C0.168 3.55173 0 3.95993 0 4.35543 C0 5.11133 0.5274 5.63963 1.2598 5.63963 C1.7881 5.63963 2.2797 5.38773 3.0117 4.76363 C3.0717 5.38773 3.2877 5.63963 3.7797 5.63963 C4.1877 5.63963 4.4397 5.49513 4.8597 5.03903 L4.8597 4.72753 Z M2.9997 4.04393 C2.9997 4.41603 2.9397 4.52343 2.6877 4.66793 C2.3997 4.83593 2.0637 4.94333 1.8117 4.94333 C1.3916 4.94333 1.0557 4.53513 1.0557 4.01953 L1.0557 3.97163 C1.0557 3.26367 1.5479 2.83105 2.9997 2.30371 L2.9997 4.04393 Z" transform="translate(98.1943, 6.48047)"/>
   <path style="fill:#0000ff; fill-rule:evenodd;stroke:none;" d="M3.468 2.7959 L1.992 2.7959 L1.992 1.4043 C1.992 0.70801 2.22 0.33594 2.676 0.33594 C2.928 0.33594 3.096 0.45606 3.312 0.80469 C3.504 1.11621 3.648 1.23633 3.852 1.23633 C4.128 1.23633 4.356 1.02051 4.356 0.74414 C4.356 0.3125 3.828 0 3.108 0 C2.364 0 1.728 0.32422 1.416 0.87598 C1.104 1.4043 1.008 1.83594 0.996 2.7959 L0.012 2.7959 L0.012 3.18067 L0.996 3.18067 L0.996 6.94829 C0.996 7.82419 0.864 7.96879 0 8.01659 L0 8.19629 L3.12 8.19629 L3.12 8.01659 C2.136 7.98049 2.004 7.84859 2.004 6.94829 L2.004 3.18067 L3.468 3.18067 L3.468 2.7959 Z" transform="translate(103.24, 3.80371)"/>
   <path style="fill:#0000ff; fill-rule:evenodd;stroke:none;" d="M4.86 4.72753 C4.656 4.89553 4.512 4.95503 4.332 4.95503 C4.056 4.95503 3.972 4.78713 3.972 4.25973 L3.972 1.91992 C3.972 1.2959 3.912 0.94726 3.732 0.65918 C3.468 0.22754 2.952 0 2.244 0 C1.116 0 0.228 0.58789 0.228 1.34375 C0.228 1.61914 0.468 1.85937 0.744 1.85937 C1.032 1.85937 1.284 1.61914 1.284 1.35547 C1.284 1.30762 1.272 1.24707 1.26 1.16308 C1.236 1.05566 1.224 0.95996 1.224 0.87598 C1.224 0.55176 1.608 0.28711 2.088 0.28711 C2.676 0.28711 3 0.63574 3 1.2832 L3 2.01562 C1.152 2.75976 0.948 2.85547 0.432 3.31152 C0.168 3.55173 0 3.95993 0 4.35543 C0 5.11133 0.528 5.63963 1.26 5.63963 C1.788 5.63963 2.28 5.38773 3.012 4.76363 C3.072 5.38773 3.288 5.63963 3.78 5.63963 C4.188 5.63963 4.44 5.49513 4.86 5.03903 L4.86 4.72753 Z M3 4.04393 C3 4.41603 2.94 4.52343 2.688 4.66793 C2.4 4.83593 2.064 4.94333 1.812 4.94333 C1.392 4.94333 1.056 4.53513 1.056 4.01953 L1.056 3.97163 C1.056 3.26367 1.548 2.83105 3 2.30371 L3 4.04393 Z" transform="translate(107.444, 6.48047)"/>
   <path style="fill:#0000ff; fill-rule:evenodd;stroke:none;" d="M4.476 3.64743 C3.9 4.48733 3.468 4.77543 2.784 4.77543 C1.692 4.77543 0.924 3.81543 0.924 2.43555 C0.924 1.19922 1.584 0.34765 2.556 0.34765 C2.988 0.34765 3.144 0.47949 3.264 0.92383 L3.336 1.1875 C3.432 1.52344 3.648 1.73926 3.9 1.73926 C4.212 1.73926 4.476 1.51172 4.476 1.23535 C4.476 0.56348 3.636 0 2.628 0 C2.04 0 1.428 0.23926 0.936 0.67187 C0.336 1.19922 0 2.01562 0 2.96387 C0 4.52343 0.948 5.63963 2.28 5.63963 C2.82 5.63963 3.3 5.44723 3.732 5.07523 C4.056 4.78713 4.284 4.46383 4.644 3.75583 L4.476 3.64743 Z" transform="translate(112.55, 6.48047)"/>
   <path style="fill:#0000ff; fill-rule:evenodd;stroke:none;" d="M1.908 2.67676 L0.048 3.33594 L0.048 3.5166 L0.144 3.50391 C0.288 3.48047 0.444 3.46875 0.552 3.46875 C0.84 3.46875 0.948 3.66016 0.948 4.18848 L0.948 6.97269 C0.948 7.83589 0.828 7.96879 0 8.01659 L0 8.19629 L2.844 8.19629 L2.844 8.01659 C2.052 7.95609 1.956 7.83589 1.956 6.97269 L1.956 2.71191 L1.908 2.67676 Z M1.344 0 C1.02 0 0.744 0.27637 0.744 0.61231 C0.744 0.94824 1.008 1.22461 1.344 1.22461 C1.692 1.22461 1.968 0.95996 1.968 0.61231 C1.968 0.27637 1.692 0 1.344 0 Z" transform="translate(117.942, 3.80371)"/>
   <path style="fill:#0000ff; fill-rule:evenodd;stroke:none;" d="M4.86 4.72753 C4.656 4.89553 4.512 4.95503 4.332 4.95503 C4.056 4.95503 3.972 4.78713 3.972 4.25973 L3.972 1.91992 C3.972 1.2959 3.912 0.94726 3.732 0.65918 C3.468 0.22754 2.952 0 2.244 0 C1.116 0 0.228 0.58789 0.228 1.34375 C0.228 1.61914 0.468 1.85937 0.744 1.85937 C1.032 1.85937 1.284 1.61914 1.284 1.35547 C1.284 1.30762 1.272 1.24707 1.26 1.16308 C1.236 1.05566 1.224 0.95996 1.224 0.87598 C1.224 0.55176 1.608 0.28711 2.088 0.28711 C2.676 0.28711 3 0.63574 3 1.2832 L3 2.01562 C1.152 2.75976 0.948 2.85547 0.432 3.31152 C0.168 3.55173 0 3.95993 0 4.35543 C0 5.11133 0.528 5.63963 1.26 5.63963 C1.788 5.63963 2.28 5.38773 3.012 4.76363 C3.072 5.38773 3.288 5.63963 3.78 5.63963 C4.188 5.63963 4.44 5.49513 4.86 5.03903 L4.86 4.72753 Z M3 4.04393 C3 4.41603 2.94 4.52343 2.688 4.66793 C2.4 4.83593 2.064 4.94333 1.812 4.94333 C1.392 4.94333 1.056 4.53513 1.056 4.01953 L1.056 3.97163 C1.056 3.26367 1.548 2.83105 3 2.30371 L3 4.04393 Z" transform="translate(121.444, 6.48047)"/>
   <path style="fill:#0000ff; fill-rule:evenodd;stroke:none;" d="M0 0.7207 L0.072 0.7207 C0.204 0.70801 0.348 0.69629 0.444 0.69629 C0.828 0.69629 0.948 0.86426 0.948 1.42871 L0.948 7.15239 C0.948 7.79979 0.78 7.95609 0.024 8.01659 L0.024 8.19629 L2.856 8.19629 L2.856 8.01659 C2.1 7.96879 1.956 7.84859 1.956 7.18849 L1.956 0.02441 L1.908 0 C1.284 0.2041 0.828 0.32422 0 0.52832 L0 0.7207 Z" transform="translate(126.478, 3.80371)"/>
   <path style="fill:none;stroke:#0000ff; stroke-width:4; stroke-linecap:butt; stroke-linejoin:miter; stroke-dasharray:none;" d="M63.7002 0 C63.7002 0 34.1006 66.7496 0 2.1494 " transform="translate(33.5996, 86.1504)"/>
  </g>
 </g>
</svg>
